<svg xmlns="http://www.w3.org/2000/svg" viewBox="0 0 8050 1988" role="img" aria-labelledby="rdw" xmlns:c2pa="http://c2pa.org/manifest"><metadata><c2pa:manifest>AAAWgmp1bWIAAAAeanVtZGMycGEAEQAQgAAAqgA4m3EDYzJwYQAAABZcanVtYgAAAEdqdW1kYzJtYQARABCAAACqADibcQN1cm46YzJwYToyMzhhODQzMi05NmVkLTQ0YjItODk1OS1hMThjZDA1ZWZiOTAAAAADl2p1bWIAAAApanVtZGMyYXMAEQAQgAAAqgA4m3EDYzJwYS5hc3NlcnRpb25zAAAAALxqdW1iAAAARGp1bWRjYm9yABEAEIAAAKoAOJtxE2MycGEuaW5ncmVkaWVudC52MwAAAAAYYzJzaE0BhB+pElZ9+asE/9avO+wAAABwY2JvcqNpZGM6Zm9ybWF0bWltYWdlL3N2Zyt4bWxqaW5zdGFuY2VJRHgseG1wOmlpZDphNjkwZWM0OC1iZDNlLTRjMWQtODQwNi04N2UzZTRkOTI5NTZscmVsYXRpb25zaGlwaHBhcmVudE9mAAAB4mp1bWIAAABBanVtZGNib3IAEQAQgAAAqgA4m3ETYzJwYS5hY3Rpb25zLnYyAAAAABhjMnNoFVBFXFKVOAzyGY3yHeYuRAAAAZljYm9yomdhY3Rpb25zgqJmYWN0aW9ua2MycGEub3BlbmVkanBhcmFtZXRlcnOha2luZ3JlZGllbnRzgaJjdXJseC1zZWxmI2p1bWJmPWMycGEuYXNzZXJ0aW9ucy9jMnBhLmluZ3JlZGllbnQudjNkaGFzaFggLIFcmYEqJqFr14q7VJ0230COjRa0Wx7uQT6KLAIfp3GkZmFjdGlvbngdY29tLmFudGhyb3BpYy5jbGF1ZGUucHJvdmlkZWRqcGFyYW1ldGVyc6F4H2NvbS5hbnRocm9waWMub3JpZ2luLWNvbmZpZGVuY2VndW5rbm93bmtkZXNjcmlwdGlvbnhmQ2xhdWRlIHByb3ZpZGVkIHRoaXMgZmlsZSBhdCB0aGUgcmVxdWVzdCBvZiBhIHVzZXIgYW5kIG1heSBoYXZlIGNyZWF0ZWQgb3IgbW9kaWZpZWQgdGhlIGZpbGUgY29udGVudHMubXNvZnR3YXJlQWdlbnShZG5hbWVmQ2xhdWRlcmFsbEFjdGlvbnNJbmNsdWRlZPUAAADIanVtYgAAAEBqdW1kY2JvcgARABCAAACqADibcRNjMnBhLmhhc2guZGF0YQAAAAAYYzJzaF2pABSe41lLUpgTb5XC8vIAAACAY2JvcqVjYWxnZnNoYTI1NmNwYWRNAAAAAAAAAAAAAAAAAGRoYXNoWCDSZUFoniA3opqGyn5125TdQk/Pvx1wj7Vxy4XmFlldX2RuYW1lbmp1bWJmIG1hbmlmZXN0amV4Y2x1c2lvbnOBomVzdGFydBigZmxlbmd0aBkeBAAAAj5qdW1iAAAAJ2p1bWRjMmNsABEAEIAAAKoAOJtxA2MycGEuY2xhaW0udjIAAAACD2Nib3KlY2FsZ2ZzaGEyNTZpc2lnbmF0dXJleE1zZWxmI2p1bWJmPS9jMnBhL3VybjpjMnBhOjIzOGE4NDMyLTk2ZWQtNDRiMi04OTU5LWExOGNkMDVlZmI5MC9jMnBhLnNpZ25hdHVyZWppbnN0YW5jZUlEeCx4bXA6aWlkOjk5YTcyYTJkLTQ2OTEtNDQ3OS1iOGJhLTlhNTYzNDM0YjQ1NnJjcmVhdGVkX2Fzc2VydGlvbnODomN1cmx4LXNlbGYjanVtYmY9YzJwYS5hc3NlcnRpb25zL2MycGEuaW5ncmVkaWVudC52M2RoYXNoWCAsgVyZgSomoWvXirtUnTbfQI6NFrRbHu5BPoosAh+ncaJjdXJseCpzZWxmI2p1bWJmPWMycGEuYXNzZXJ0aW9ucy9jMnBhLmFjdGlvbnMudjJkaGFzaFgg/4P6MCgP5ykVGwQ//khXbzBgPUKnBWvbB6hgTziwEV2iY3VybHgpc2VsZiNqdW1iZj1jMnBhLmFzc2VydGlvbnMvYzJwYS5oYXNoLmRhdGFkaGFzaFggXHmQD9sYXEuWH1AZqk4/8rQaiA3hLtYhpw9zvI22LS50Y2xhaW1fZ2VuZXJhdG9yX2luZm+jZG5hbWVvQW50aHJvcGljIEZpbGVzZ3ZlcnNpb25lMS4wLjBrc3BlY1ZlcnNpb25lMi40LjAAABA4anVtYgAAAChqdW1kYzJjcwARABCAAACqADibcQNjMnBhLnNpZ25hdHVyZQAAABAIY2JvctKEWQISogEmGCFZAgowggIGMIIBjaADAgECAhRA5aAK7sI50L64g/oGQgU9Z1UTADAKBggqhkjOPQQDAzBJMRcwFQYDVQQKEw5BbnRocm9waWMsIFBCQzEuMCwGA1UEAxMlQW50aHJvcGljIENvbnRlbnQgQ3JlZGVudGlhbHMgUm9vdCBDQTAeFw0yNjA4MDcxODQzNTZaFw0yODA4MDYxOTQzNTZaMEQxFzAVBgNVBAoTDkFudGhyb3BpYywgUEJDMSkwJwYDVQQDEyBBbnRocm9waWMgQ2xhdWRlIENvbnRlbnQgU2lnbmluZzBZMBMGByqGSM49AgEGCCqGSM49AwEHA0IABJh6CmvLUBgFFNU0vUKlOVtE6djd17L5SuwX0LemFisBM3dkd/3cyjxFA3Qo5S46fX0/ihY0VZ7mfb9KF703t5OjWDBWMA4GA1UdDwEB/wQEAwIHgDAVBgNVHSUEDjAMBgorBgEEAYPoXgIBMAwGA1UdEwEB/wQCMAAwHwYDVR0jBBgwFoAUzlHiBIFOZFsj+OPEz5o+nMHXXMIwCgYIKoZIzj0EAwMDZwAwZAIwMXMdFJ4BetLLVY7ORuE9noqbbAZOZn/aArXyTwFAZfKrPzxF2vPoJNf1+UCdg1XGAjBwX1zd9WGqYkqmL5SFqw1QySjr1zJfpJM9+1rdDwSPLMOPOjKuiXjoU/pUUeG9RwmhY3BhZFkNngAAAAAAAAAAAAAAAAAAAAAAAAAAAAAAAAAAAAAAAAAAAAAAAAAAAAAAAAAAAAAAAAAAAAAAAAAAAAAAAAAAAAAAAAAAAAAAAAAAAAAAAAAAAAAAAAAAAAAAAAAAAAAAAAAAAAAAAAAAAAAAAAAAAAAAAAAAAAAAAAAAAAAAAAAAAAAAAAAAAAAAAAAAAAAAAAAAAAAAAAAAAAAAAAAAAAAAAAAAAAAAAAAAAAAAAAAAAAAAAAAAAAAAAAAAAAAAAAAAAAAAAAAAAAAAAAAAAAAAAAAAAAAAAAAAAAAAAAAAAAAAAAAAAAAAAAAAAAAAAAAAAAAAAAAAAAAAAAAAAAAAAAAAAAAAAAAAAAAAAAAAAAAAAAAAAAAAAAAAAAAAAAAAAAAAAAAAAAAAAAAAAAAAAAAAAAAAAAAAAAAAAAAAAAAAAAAAAAAAAAAAAAAAAAAAAAAAAAAAAAAAAAAAAAAAAAAAAAAAAAAAAAAAAAAAAAAAAAAAAAAAAAAAAAAAAAAAAAAAAAAAAAAAAAAAAAAAAAAAAAAAAAAAAAAAAAAAAAAAAAAAAAAAAAAAAAAAAAAAAAAAAAAAAAAAAAAAAAAAAAAAAAAAAAAAAAAAAAAAAAAAAAAAAAAAAAAAAAAAAAAAAAAAAAAAAAAAAAAAAAAAAAAAAAAAAAAAAAAAAAAAAAAAAAAAAAAAAAAAAAAAAAAAAAAAAAAAAAAAAAAAAAAAAAAAAAAAAAAAAAAAAAAAAAAAAAAAAAAAAAAAAAAAAAAAAAAAAAAAAAAAAAAAAAAAAAAAAAAAAAAAAAAAAAAAAAAAAAAAAAAAAAAAAAAAAAAAAAAAAAAAAAAAAAAAAAAAAAAAAAAAAAAAAAAAAAAAAAAAAAAAAAAAAAAAAAAAAAAAAAAAAAAAAAAAAAAAAAAAAAAAAAAAAAAAAAAAAAAAAAAAAAAAAAAAAAAAAAAAAAAAAAAAAAAAAAAAAAAAAAAAAAAAAAAAAAAAAAAAAAAAAAAAAAAAAAAAAAAAAAAAAAAAAAAAAAAAAAAAAAAAAAAAAAAAAAAAAAAAAAAAAAAAAAAAAAAAAAAAAAAAAAAAAAAAAAAAAAAAAAAAAAAAAAAAAAAAAAAAAAAAAAAAAAAAAAAAAAAAAAAAAAAAAAAAAAAAAAAAAAAAAAAAAAAAAAAAAAAAAAAAAAAAAAAAAAAAAAAAAAAAAAAAAAAAAAAAAAAAAAAAAAAAAAAAAAAAAAAAAAAAAAAAAAAAAAAAAAAAAAAAAAAAAAAAAAAAAAAAAAAAAAAAAAAAAAAAAAAAAAAAAAAAAAAAAAAAAAAAAAAAAAAAAAAAAAAAAAAAAAAAAAAAAAAAAAAAAAAAAAAAAAAAAAAAAAAAAAAAAAAAAAAAAAAAAAAAAAAAAAAAAAAAAAAAAAAAAAAAAAAAAAAAAAAAAAAAAAAAAAAAAAAAAAAAAAAAAAAAAAAAAAAAAAAAAAAAAAAAAAAAAAAAAAAAAAAAAAAAAAAAAAAAAAAAAAAAAAAAAAAAAAAAAAAAAAAAAAAAAAAAAAAAAAAAAAAAAAAAAAAAAAAAAAAAAAAAAAAAAAAAAAAAAAAAAAAAAAAAAAAAAAAAAAAAAAAAAAAAAAAAAAAAAAAAAAAAAAAAAAAAAAAAAAAAAAAAAAAAAAAAAAAAAAAAAAAAAAAAAAAAAAAAAAAAAAAAAAAAAAAAAAAAAAAAAAAAAAAAAAAAAAAAAAAAAAAAAAAAAAAAAAAAAAAAAAAAAAAAAAAAAAAAAAAAAAAAAAAAAAAAAAAAAAAAAAAAAAAAAAAAAAAAAAAAAAAAAAAAAAAAAAAAAAAAAAAAAAAAAAAAAAAAAAAAAAAAAAAAAAAAAAAAAAAAAAAAAAAAAAAAAAAAAAAAAAAAAAAAAAAAAAAAAAAAAAAAAAAAAAAAAAAAAAAAAAAAAAAAAAAAAAAAAAAAAAAAAAAAAAAAAAAAAAAAAAAAAAAAAAAAAAAAAAAAAAAAAAAAAAAAAAAAAAAAAAAAAAAAAAAAAAAAAAAAAAAAAAAAAAAAAAAAAAAAAAAAAAAAAAAAAAAAAAAAAAAAAAAAAAAAAAAAAAAAAAAAAAAAAAAAAAAAAAAAAAAAAAAAAAAAAAAAAAAAAAAAAAAAAAAAAAAAAAAAAAAAAAAAAAAAAAAAAAAAAAAAAAAAAAAAAAAAAAAAAAAAAAAAAAAAAAAAAAAAAAAAAAAAAAAAAAAAAAAAAAAAAAAAAAAAAAAAAAAAAAAAAAAAAAAAAAAAAAAAAAAAAAAAAAAAAAAAAAAAAAAAAAAAAAAAAAAAAAAAAAAAAAAAAAAAAAAAAAAAAAAAAAAAAAAAAAAAAAAAAAAAAAAAAAAAAAAAAAAAAAAAAAAAAAAAAAAAAAAAAAAAAAAAAAAAAAAAAAAAAAAAAAAAAAAAAAAAAAAAAAAAAAAAAAAAAAAAAAAAAAAAAAAAAAAAAAAAAAAAAAAAAAAAAAAAAAAAAAAAAAAAAAAAAAAAAAAAAAAAAAAAAAAAAAAAAAAAAAAAAAAAAAAAAAAAAAAAAAAAAAAAAAAAAAAAAAAAAAAAAAAAAAAAAAAAAAAAAAAAAAAAAAAAAAAAAAAAAAAAAAAAAAAAAAAAAAAAAAAAAAAAAAAAAAAAAAAAAAAAAAAAAAAAAAAAAAAAAAAAAAAAAAAAAAAAAAAAAAAAAAAAAAAAAAAAAAAAAAAAAAAAAAAAAAAAAAAAAAAAAAAAAAAAAAAAAAAAAAAAAAAAAAAAAAAAAAAAAAAAAAAAAAAAAAAAAAAAAAAAAAAAAAAAAAAAAAAAAAAAAAAAAAAAAAAAAAAAAAAAAAAAAAAAAAAAAAAAAAAAAAAAAAAAAAAAAAAAAAAAAAAAAAAAAAAAAAAAAAAAAAAAAAAAAAAAAAAAAAAAAAAAAAAAAAAAAAAAAAAAAAAAAAAAAAAAAAAAAAAAAAAAAAAAAAAAAAAAAAAAAAAAAAAAAAAAAAAAAAAAAAAAAAAAAAAAAAAAAAAAAAAAAAAAAAAAAAAAAAAAAAAAAAAAAAAAAAAAAAAAAAAAAAAAAAAAAAAAAAAAAAAAAAAAAAAAAAAAAAAAAAAAAAAAAAAAAAAAAAAAAAAAAAAAAAAAAAAAAAAAAAAAAAAAAAAAAAAAAAAAAAAAAAAAAAAAAAAAAAAAAAAAAAAAAAAAAAAAAAAAAAAAAAAAAAAAAAAAAAAAAAAAAAAAAAAAAAAAAAAAAAAAAAAAAAAAAAAAAAAAAAAAAAAAAAAAAAAAAAAAAAAAAAAAAAAAAAAAAAAAAAAAAAAAAAAAAAAAAAAAAAAAAAAAAAAAAAAAAAAAAAAAAAAAAAAAAAAAAAAAAAAAAAAAAAAAAAAAAAAAAAAAAAAAAAAAAAAAAAAAAAAAAAAAAAAAAAAAAAAAAAAAAAAAAAAAAAAAAAAAAAAAAAAAAAAAAAAAAAAAAAAAAAAAAAAAAAAAAAAAAAAAAAAAAAAAAAAAAAAAAAAAAAAAAAAAAAAAAAAAAAAAAAAAAAAAAAAAAAAAAAAAAAAAAAAAAAAAAAAAAAAAAAAAAAAAAAAAAAAAAAAAAAAAAAAAAAAAAAAAAAAAAAAAAAAAAAAAAAAAAAAAAAAAAAAAAAAAAAAAAAAAAAAAAAAAAAAAAAAAAAAAAAAAAAAAAAAAAAAAAAAAAAAAAAAAAAAAAAAAAAAAAAAAAAAAAAAAAAAAAAAAAAAAAAAAAAAAAAAAAAAAAAAAAAAAAAAAAAAAAAAAAAAAAAAAAAAAAAAAAAAAAAAAAAAAAAAAAAAAAAAAAAAAAAAAAAAAAAAAAAAAAAAAAAAAAAAAAAAAAAAAAAAAAAAAAAAAAAAAAAAAAAAAAAAAAAAAAAAAAAAAAAAAAAAAAAAAAAAAAAAAAAAAAAAAAAAAAAAAAAAAAAAAAAAAAAAAAAAAAAAAAAAAAAAAAAAAAAAAAAAAAAAAAAAAAAAAAAAAAAAAAAAAAAAAAAAAAAAAAAAAAAAAAAAAAAAAAAAAAAAAAAAAAAAAAAAAAAAAAAAAAAAAAAAAAAAAAAAAAAAAAAAAAAAAAAAAAAAAAAAAAAAAAAAAAAAAAAAAAAAAAAAAAAAAAAAAAAAAAAAAAAAAAAAAAAAAAAAAAAAAAAAAAAAAAAAAAAAAAAAAAAAAAAAAAAAAAAAAAAAAAAAAAAAAAAAAAAAAAAAAAAAAAAAAAAAAAAAAAAAAAAAAAAAAAAAAAAAAAAAAAAAAAAAAAAAAAAAAAAAAAAAAAAAAAAAAAAAAAAAAAAAAAAAAAAAAAAAAAAAAAAAAAAAAAAAAAAAAAAAAAAAAAAAAAAAAAAAAAAAAAAAAAAAAAAAAAAAAAAAAAAAAAAAAAAAAAAAAAAAAAAAAAAAAAAAAAAAAAAAAAAAAAAAAAAAAAAAAAAAAAAAAAAAAAAAAAAAAAAAAAAAAAAAAAAAAAAAAAAAAAAAAAAAAAAAAAAAAAAAAAAAAAAAAAAAAAAAAAAAAAAAAAAAAAAAAAAAAAAAAAAAAAAAAAAAAAAAAAAAAAAAAAAAAAAAAAAAAAAAAAAAAAAAAAAAAAAAAAAAAAAAAAAAAAAAAAAAAAAAAAAAAAAAAAAAAAAAAAAAAAAAAAAAAAAAAAAAAAAAAAAAAAAAAAAAAAPZYQHPTxuD2jaybuTVVgC4HpPjYyXE1BiGMcu3jFS8UCFAfvz1HIqSHclPeDSq2LpZyakCFuCmIfqcWhX/d+9zWErQ=</c2pa:manifest></metadata><title id="rdw">Run Doctor, Foot &amp; Ankle Sports Medicine</title><g transform="translate(0.000000,1988.000000) scale(0.100000,-0.100000)"><path fill="#FFFFFF" d="M0 11720 l0 -8160 40250 0 40250 0 0 8160 0 8160 -40250 0 -40250 0 0 -8160z m7450 6801 c47 -5 108 -13 135 -17 28 -3 54 -10 60 -15 5 -5 24 -9 41 -9 18 0 36 -4 39 -10 3 -5 19 -10 35 -10 16 0 32 -4 35 -10 3 -5 17 -10 30 -10 13 0 27 -4 30 -10 3 -5 15 -10 26 -10 10 0 27 -4 37 -9 9 -5 28 -13 42 -18 14 -6 45 -20 68 -32 24 -11 50 -21 58 -21 8 0 14 -4 14 -10 0 -5 9 -10 20 -10 11 0 20 -3 20 -8 0 -4 17 -15 38 -24 37 -18 93 -49 102 -58 3 -3 17 -11 33 -19 15 -8 27 -18 27 -23 0 -4 6 -8 13 -8 7 0 22 -8 33 -18 10 -10 35 -28 54 -42 19 -13 37 -27 40 -30 3 -3 23 -18 45 -34 50 -37 341 -328 378 -378 15 -20 33 -42 40 -50 7 -7 24 -29 37 -48 13 -19 27 -37 30 -40 14 -11 110 -160 110 -170 0 -5 3 -10 8 -10 4 0 18 -21 32 -47 13 -27 27 -50 30 -53 8 -8 38 -61 67 -120 15 -30 31 -56 35 -58 4 -2 8 -9 8 -16 0 -11 30 -78 71 -158 5 -10 9 -25 9 -33 0 -8 5 -15 10 -15 6 0 10 -7 10 -15 0 -8 5 -24 10 -35 6 -11 15 -29 20 -40 6 -11 10 -27 10 -35 0 -8 5 -24 10 -35 6 -11 15 -29 20 -40 6 -11 10 -29 10 -39 0 -11 5 -23 10 -26 6 -3 10 -15 10 -26 0 -10 4 -27 9 -37 5 -9 15 -37 21 -62 7 -25 16 -54 20 -65 9 -21 17 -57 26 -110 3 -16 9 -39 14 -50 8 -20 16 -54 26 -125 3 -19 9 -44 14 -55 5 -11 11 -40 14 -65 3 -25 10 -74 16 -110 16 -93 28 -204 42 -370 17 -212 17 -3962 0 -4180 -24 -295 -51 -483 -102 -715 -6 -27 -14 -67 -17 -88 -3 -20 -9 -40 -14 -43 -5 -3 -9 -15 -9 -26 0 -23 -17 -81 -31 -110 -5 -10 -9 -29 -9 -42 0 -14 -4 -28 -10 -31 -5 -3 -10 -17 -10 -30 0 -13 -5 -27 -10 -30 -5 -3 -10 -17 -10 -30 0 -13 -5 -27 -10 -30 -6 -3 -10 -15 -10 -26 0 -10 -4 -27 -9 -37 -9 -17 -23 -51 -40 -94 -14 -38 -33 -82 -42 -100 -5 -10 -9 -25 -9 -33 0 -8 -4 -15 -10 -15 -5 0 -10 -6 -10 -12 0 -13 -99 -218 -110 -228 -3 -3 -14 -23 -26 -45 -30 -59 -47 -88 -61 -102 -6 -7 -15 -22 -18 -33 -3 -11 -11 -20 -16 -20 -5 0 -9 -6 -9 -12 0 -7 -11 -26 -25 -42 -14 -16 -25 -33 -25 -37 0 -4 -6 -14 -13 -21 -7 -7 -24 -29 -37 -48 -13 -19 -31 -42 -40 -50 -9 -8 -27 -31 -40 -50 -29 -43 -291 -305 -342 -343 -20 -15 -42 -33 -50 -40 -22 -22 -226 -157 -238 -157 -5 0 -10 -4 -10 -10 0 -5 -6 -10 -12 -10 -32 -1 -52 -29 -40 -55 7 -14 16 -35 21 -47 5 -13 19 -45 31 -73 12 -27 26 -59 30 -70 4 -11 17 -40 28 -65 11 -25 27 -62 36 -82 18 -43 39 -91 62 -145 9 -21 22 -51 30 -67 8 -16 14 -35 14 -43 0 -7 5 -13 10 -13 6 0 10 -7 10 -15 0 -9 9 -35 20 -57 11 -23 20 -48 20 -55 0 -7 5 -13 10 -13 6 0 10 -7 10 -15 0 -15 4 -25 28 -72 7 -13 12 -30 12 -38 0 -8 5 -15 10 -15 6 0 10 -7 10 -15 0 -8 5 -24 10 -35 6 -11 15 -29 20 -40 6 -11 10 -27 10 -35 0 -8 5 -15 10 -15 6 0 10 -7 10 -15 0 -15 4 -25 28 -72 7 -13 12 -30 12 -38 0 -8 5 -15 10 -15 6 0 10 -7 10 -15 0 -8 4 -23 9 -33 13 -24 52 -113 61 -137 4 -11 18 -42 30 -70 12 -27 26 -59 30 -70 4 -11 18 -42 30 -70 12 -27 26 -59 30 -70 4 -11 18 -42 30 -70 12 -27 26 -59 30 -70 4 -11 18 -42 30 -70 12 -27 26 -59 30 -70 4 -11 17 -40 28 -65 11 -25 27 -62 36 -82 9 -21 23 -54 31 -73 8 -19 21 -50 29 -67 51 -121 77 -181 92 -212 8 -16 14 -35 14 -43 0 -7 5 -13 10 -13 6 0 10 -7 10 -15 0 -8 5 -24 10 -35 6 -11 15 -29 20 -40 6 -11 10 -27 10 -35 0 -8 5 -15 10 -15 6 0 10 -7 10 -15 0 -8 5 -24 10 -35 6 -11 15 -29 20 -40 6 -11 10 -27 10 -35 0 -8 5 -15 10 -15 6 0 10 -7 10 -15 0 -15 4 -25 28 -72 7 -13 12 -30 12 -38 0 -8 5 -15 10 -15 6 0 10 -7 10 -15 0 -15 4 -25 28 -72 7 -13 12 -30 12 -38 0 -8 5 -15 10 -15 6 0 10 -7 10 -15 0 -8 4 -23 9 -33 13 -24 52 -113 61 -137 4 -11 18 -42 30 -70 12 -27 26 -59 30 -70 4 -11 18 -42 30 -70 12 -27 26 -59 30 -70 4 -11 18 -42 30 -70 12 -27 26 -59 30 -70 4 -11 17 -40 28 -65 11 -25 27 -61 35 -80 42 -99 49 -116 58 -132 5 -10 9 -22 9 -28 0 -7 -483 -10 -1468 -10 l-1468 0 -23 53 c-13 28 -30 68 -38 87 -8 19 -21 48 -29 64 -8 16 -14 35 -14 43 0 7 -4 13 -10 13 -5 0 -10 7 -10 15 0 15 -4 25 -28 72 -7 13 -12 30 -12 38 0 8 -4 15 -10 15 -5 0 -10 7 -10 15 0 8 -4 23 -9 33 -13 24 -52 113 -61 137 -4 11 -18 43 -30 70 -12 28 -26 59 -30 70 -4 11 -17 40 -28 65 -11 25 -27 62 -36 83 -9 20 -23 54 -32 75 -9 20 -23 53 -31 72 -8 19 -21 48 -29 64 -8 16 -14 35 -14 43 0 7 -4 13 -10 13 -5 0 -10 7 -10 15 0 8 -5 25 -12 38 -24 47 -28 57 -28 72 0 8 -4 15 -10 15 -5 0 -10 7 -10 15 0 15 -4 25 -28 72 -7 13 -12 30 -12 38 0 8 -4 15 -10 15 -5 0 -10 7 -10 15 0 8 -4 23 -9 33 -13 24 -52 113 -61 137 -4 11 -18 43 -30 70 -12 28 -26 59 -30 70 -4 11 -17 40 -28 65 -22 50 -50 115 -99 230 -8 19 -21 48 -29 64 -8 16 -14 35 -14 43 0 7 -4 13 -10 13 -5 0 -10 7 -10 15 0 15 -4 25 -28 72 -7 13 -12 30 -12 38 0 8 -4 15 -10 15 -5 0 -10 7 -10 15 0 8 -4 23 -9 33 -13 24 -52 113 -61 137 -4 11 -18 43 -30 70 -12 28 -26 59 -30 70 -4 11 -17 40 -28 65 -20 46 -45 102 -67 155 -26 61 -48 111 -61 139 -8 16 -14 35 -14 43 0 7 -4 13 -10 13 -5 0 -10 7 -10 15 0 8 -4 24 -10 35 -5 11 -14 29 -20 40 -5 11 -10 27 -10 35 0 8 -4 15 -10 15 -5 0 -10 7 -10 15 0 8 -4 24 -10 35 -5 11 -14 29 -20 40 -5 11 -10 27 -10 35 0 8 -4 15 -10 15 -5 0 -10 7 -10 15 0 8 -4 23 -9 33 -13 24 -52 113 -61 137 -4 11 -18 43 -30 70 -12 28 -26 59 -30 70 -8 21 -47 110 -60 135 -6 13 -52 15 -321 15 l-314 0 -3 -1897 -2 -1898 -1395 0 -1395 0 0 6970 0 6970 2723 -4 c1872 -2 2749 -7 2807 -15z m5940 -4978 c0 -2749 3 -5029 7 -5067 6 -65 9 -73 49 -113 l43 -43 991 0 c1122 0 1032 -7 1088 88 9 17 12 1051 12 5077 l0 5055 1411 0 1412 0 -7 -762 c-4 -420 -11 -2054 -17 -3633 -16 -4455 -27 -6320 -38 -6445 -13 -161 -31 -296 -61 -465 -6 -33 -13 -78 -16 -100 -4 -22 -10 -44 -15 -49 -5 -6 -9 -27 -9 -47 0 -21 -5 -41 -10 -44 -5 -3 -10 -21 -10 -40 0 -19 -4 -37 -10 -40 -5 -3 -10 -19 -10 -35 0 -16 -4 -32 -10 -35 -5 -3 -10 -17 -10 -31 0 -13 -4 -32 -9 -42 -5 -9 -15 -37 -21 -62 -13 -46 -26 -82 -41 -112 -5 -10 -9 -25 -9 -33 0 -8 -4 -23 -9 -33 -10 -19 -32 -73 -60 -144 -32 -84 -203 -430 -221 -448 -3 -3 -11 -16 -19 -30 -8 -14 -19 -34 -25 -44 -6 -11 -19 -29 -28 -40 -10 -11 -18 -24 -18 -28 0 -5 -9 -18 -20 -30 -11 -12 -20 -28 -20 -35 0 -7 -4 -13 -8 -13 -4 0 -16 -13 -25 -30 -10 -16 -23 -35 -30 -42 -7 -7 -24 -29 -37 -48 -13 -19 -27 -37 -30 -40 -3 -3 -21 -25 -40 -50 -42 -56 -342 -356 -392 -393 -20 -15 -42 -33 -50 -40 -7 -7 -29 -24 -48 -37 -19 -13 -44 -32 -54 -42 -11 -10 -24 -18 -28 -18 -5 0 -18 -9 -30 -20 -12 -11 -28 -20 -35 -20 -7 0 -13 -4 -13 -9 0 -5 -8 -11 -17 -14 -18 -6 -74 -37 -83 -47 -10 -11 -175 -90 -187 -90 -7 0 -13 -4 -13 -10 0 -5 -9 -10 -19 -10 -11 0 -23 -4 -26 -10 -3 -5 -17 -10 -31 -10 -13 0 -24 -4 -24 -10 0 -5 -11 -10 -24 -10 -14 0 -28 -4 -31 -10 -3 -5 -17 -10 -30 -10 -13 0 -27 -5 -30 -10 -3 -6 -19 -10 -35 -10 -16 0 -31 -4 -34 -9 -3 -5 -23 -11 -43 -14 -21 -3 -63 -11 -93 -17 -160 -32 -243 -34 -1630 -34 -1385 0 -1479 2 -1635 33 -27 6 -66 13 -85 16 -19 4 -44 10 -55 15 -11 4 -40 13 -65 20 -46 13 -82 26 -112 41 -10 5 -27 9 -38 9 -11 0 -20 5 -20 10 0 6 -7 10 -15 10 -8 0 -23 4 -33 9 -9 5 -51 26 -92 45 -82 40 -151 78 -192 107 -14 11 -31 19 -37 19 -6 0 -11 5 -11 10 0 6 -6 10 -13 10 -7 0 -22 8 -33 18 -10 10 -35 28 -54 42 -19 13 -37 27 -40 30 -3 3 -21 17 -40 30 -19 13 -37 27 -40 30 -3 3 -30 25 -60 50 -70 58 -242 230 -300 300 -24 30 -52 62 -60 70 -9 8 -27 31 -40 50 -13 19 -27 37 -30 40 -3 3 -17 21 -30 40 -14 19 -32 44 -42 54 -10 11 -18 25 -18 32 0 7 -4 14 -8 16 -12 4 -72 95 -72 107 0 6 -4 11 -10 11 -5 0 -10 6 -10 13 0 7 -9 23 -20 35 -11 12 -20 28 -20 37 0 8 -3 15 -7 15 -5 0 -13 10 -19 23 -30 60 -60 112 -66 115 -5 2 -8 12 -8 23 0 10 -4 19 -10 19 -5 0 -10 9 -10 20 0 11 -4 20 -10 20 -5 0 -10 9 -10 20 0 11 -4 20 -10 20 -5 0 -10 9 -10 20 0 11 -4 20 -10 20 -5 0 -10 7 -10 15 0 8 -4 23 -10 33 -21 39 -50 107 -50 119 0 7 -4 13 -10 13 -5 0 -10 9 -10 20 0 11 -4 28 -9 38 -5 9 -14 31 -21 47 -7 17 -16 38 -21 47 -5 10 -9 26 -9 36 0 10 -4 22 -8 28 -5 5 -14 29 -21 54 -7 25 -17 53 -22 62 -5 10 -9 27 -9 37 0 11 -4 23 -10 26 -5 3 -10 19 -10 35 0 16 -4 31 -9 34 -5 3 -12 22 -15 41 -3 19 -9 51 -12 70 -3 19 -10 38 -15 41 -5 3 -9 23 -9 44 0 21 -4 42 -10 45 -5 3 -10 23 -10 44 0 20 -4 41 -9 47 -5 5 -12 32 -15 59 -3 28 -10 79 -16 115 -16 106 -31 227 -42 350 -6 74 -11 2007 -14 5438 l-4 5322 1395 0 1395 0 0 -4997z m7951 4950 c13 -27 26 -50 29 -53 3 -3 19 -32 36 -65 62 -119 79 -150 87 -153 4 -2 7 -12 7 -22 0 -10 3 -20 8 -22 4 -1 17 -22 30 -45 12 -24 32 -62 45 -85 12 -24 25 -44 30 -46 4 -2 7 -12 7 -22 0 -10 3 -20 8 -22 4 -1 17 -22 30 -45 12 -24 32 -62 45 -85 12 -24 25 -44 30 -46 4 -2 7 -12 7 -22 0 -10 3 -20 8 -22 4 -1 17 -22 30 -45 12 -24 32 -62 45 -85 12 -24 25 -44 30 -46 4 -2 7 -12 7 -22 0 -10 3 -20 8 -22 6 -3 58 -96 86 -155 6 -13 14 -23 19 -23 4 0 7 -9 7 -19 0 -11 3 -21 8 -23 4 -1 16 -21 28 -43 56 -108 89 -170 94 -175 3 -3 19 -32 36 -65 62 -119 79 -150 87 -153 4 -2 7 -12 7 -22 0 -10 3 -20 8 -22 4 -1 17 -22 30 -45 12 -24 32 -62 45 -85 12 -24 25 -44 30 -46 4 -2 7 -12 7 -22 0 -10 3 -20 8 -22 4 -1 17 -22 30 -45 12 -24 32 -62 45 -85 12 -24 25 -44 30 -46 4 -2 7 -12 7 -22 0 -10 3 -20 8 -22 6 -3 58 -96 86 -155 6 -13 14 -23 19 -23 4 0 7 -9 7 -19 0 -11 3 -21 8 -23 6 -3 58 -96 86 -155 6 -13 14 -23 19 -23 4 0 7 -9 7 -19 0 -11 3 -21 8 -23 4 -1 16 -21 28 -43 56 -108 89 -170 94 -175 3 -3 19 -32 36 -65 62 -119 79 -150 87 -153 4 -2 7 -12 7 -22 0 -10 3 -20 8 -22 4 -2 17 -22 30 -45 12 -24 32 -62 45 -85 12 -24 25 -44 30 -46 4 -2 7 -12 7 -22 0 -10 3 -20 8 -22 4 -1 17 -22 30 -45 12 -24 32 -62 45 -85 12 -24 25 -44 30 -46 4 -2 7 -12 7 -22 0 -10 3 -20 8 -22 6 -3 58 -96 86 -155 6 -13 14 -23 19 -23 4 0 7 -9 7 -19 0 -11 3 -21 8 -23 4 -1 16 -21 28 -43 56 -107 89 -170 94 -175 3 -3 14 -23 26 -45 56 -108 89 -170 94 -175 3 -3 19 -32 36 -65 62 -119 79 -150 87 -153 4 -2 7 -12 7 -22 0 -10 3 -20 8 -22 4 -1 17 -22 30 -45 12 -24 32 -62 45 -85 12 -24 25 -44 30 -46 4 -2 7 -12 7 -22 0 -10 3 -20 8 -22 6 -3 58 -96 86 -155 6 -13 14 -23 19 -23 4 0 7 -9 7 -19 0 -11 3 -21 8 -23 6 -3 58 -96 86 -155 6 -13 14 -23 19 -23 4 0 7 -9 7 -19 0 -11 3 -21 8 -23 4 -2 16 -21 28 -43 56 -108 89 -170 94 -175 3 -3 19 -32 36 -65 52 -100 79 -150 84 -155 3 -3 19 -32 36 -65 62 -119 79 -150 87 -153 4 -2 7 -12 7 -22 0 -10 3 -20 8 -22 4 -2 17 -22 30 -45 12 -24 32 -62 45 -85 12 -24 25 -44 30 -46 4 -2 7 -12 7 -22 0 -10 3 -20 8 -22 6 -3 58 -96 86 -155 6 -13 14 -23 19 -23 4 0 7 -9 7 -19 0 -11 3 -21 8 -23 6 -3 58 -96 86 -155 6 -13 14 -23 19 -23 4 0 7 -9 7 -19 0 -11 3 -21 8 -23 4 -1 16 -21 28 -43 59 -113 90 -170 95 -175 3 -3 16 -29 30 -57 13 -29 30 -53 37 -53 9 0 12 686 12 3395 l0 3395 1395 0 1395 0 0 -6970 0 -6970 -1046 0 c-1037 0 -1046 0 -1051 20 -3 11 -9 20 -14 20 -5 0 -9 9 -9 20 0 11 -3 20 -7 20 -5 0 -13 10 -19 23 -21 42 -59 112 -64 117 -3 3 -14 23 -26 45 -27 52 -48 89 -54 95 -5 5 -43 75 -64 117 -6 13 -14 23 -18 23 -5 0 -8 9 -8 20 0 11 -3 20 -7 20 -5 0 -13 10 -18 23 -15 31 -59 111 -65 117 -5 5 -43 75 -64 117 -6 13 -14 23 -18 23 -5 0 -8 9 -8 20 0 11 -3 20 -7 20 -5 0 -13 10 -18 23 -15 31 -59 111 -65 117 -3 3 -14 23 -26 45 -27 52 -48 89 -54 95 -3 3 -15 24 -27 48 -13 23 -33 61 -45 85 -13 23 -25 44 -28 47 -3 3 -10 14 -16 25 -46 86 -60 111 -64 115 -5 5 -43 75 -64 117 -6 13 -14 23 -18 23 -5 0 -8 9 -8 20 0 11 -3 20 -7 20 -5 0 -13 10 -18 23 -15 31 -59 111 -65 117 -5 5 -43 75 -64 117 -6 13 -14 23 -18 23 -5 0 -8 9 -8 20 0 11 -3 20 -7 20 -5 0 -13 10 -18 23 -15 31 -59 111 -65 117 -3 3 -14 23 -26 45 -27 52 -48 89 -54 95 -3 3 -15 24 -27 48 -13 23 -33 61 -45 85 -13 23 -25 44 -28 47 -3 3 -10 14 -16 25 -46 86 -60 111 -64 115 -5 5 -43 75 -64 117 -6 13 -14 23 -18 23 -5 0 -8 9 -8 20 0 11 -3 20 -7 20 -5 0 -13 10 -18 23 -15 31 -59 111 -65 117 -5 5 -43 75 -64 117 -6 13 -14 23 -18 23 -5 0 -8 9 -8 20 0 11 -3 20 -7 20 -5 0 -13 10 -19 23 -21 42 -59 112 -64 117 -3 3 -14 23 -26 45 -27 52 -48 89 -54 95 -5 5 -43 75 -64 117 -6 13 -14 23 -18 23 -5 0 -8 9 -8 20 0 11 -3 20 -7 20 -5 0 -13 10 -18 23 -15 31 -59 111 -65 117 -5 5 -43 75 -64 117 -6 13 -14 23 -18 23 -5 0 -8 9 -8 20 0 11 -3 20 -7 20 -5 0 -13 10 -19 23 -21 42 -59 112 -64 117 -3 3 -14 23 -26 45 -27 52 -48 89 -54 95 -3 3 -15 24 -27 48 -13 23 -33 61 -45 85 -13 23 -25 44 -28 47 -3 3 -10 14 -16 25 -46 86 -60 111 -64 115 -5 5 -43 75 -64 117 -6 13 -14 23 -18 23 -5 0 -8 9 -8 20 0 11 -3 20 -7 20 -5 0 -13 10 -18 23 -15 31 -59 111 -65 117 -5 5 -43 75 -64 117 -6 13 -14 23 -18 23 -5 0 -8 9 -8 20 0 11 -3 20 -7 20 -5 0 -13 10 -19 23 -21 42 -59 112 -64 117 -3 3 -14 23 -26 45 -27 52 -48 89 -54 95 -5 5 -43 75 -64 117 -6 13 -14 23 -18 23 -5 0 -8 9 -8 20 0 11 -3 20 -7 20 -5 0 -13 10 -18 23 -15 31 -59 111 -65 117 -5 5 -43 75 -64 117 -6 13 -14 23 -18 23 -5 0 -8 9 -8 20 0 11 -3 20 -7 20 -5 0 -13 10 -18 23 -15 31 -59 111 -65 117 -3 3 -14 23 -26 45 -27 52 -48 89 -54 95 -3 3 -15 24 -27 48 -13 23 -33 61 -45 85 -13 23 -25 44 -28 47 -3 3 -10 14 -16 25 -46 86 -60 111 -64 115 -5 5 -43 75 -64 117 -6 13 -14 23 -18 23 -5 0 -8 9 -8 20 0 11 -3 20 -7 20 -5 0 -13 10 -18 23 -15 31 -59 111 -65 117 -6 6 -44 77 -74 137 -12 24 -24 43 -28 43 -5 0 -8 -1534 -8 -3410 l0 -3410 -1390 0 -1390 0 0 6970 0 6970 1108 0 1109 0 24 -47z m12394 28 c44 -6 103 -13 130 -17 28 -3 54 -10 60 -15 5 -5 24 -9 41 -9 18 0 36 -4 39 -10 3 -5 16 -10 27 -10 21 0 69 -13 118 -33 14 -5 35 -14 48 -18 12 -5 32 -13 45 -18 52 -20 77 -31 162 -72 50 -24 92 -46 95 -49 3 -3 25 -16 50 -29 47 -25 221 -140 230 -151 3 -3 21 -17 40 -30 19 -13 42 -31 50 -40 8 -8 44 -40 80 -70 83 -70 190 -177 260 -260 30 -36 62 -72 70 -80 9 -8 27 -31 40 -50 13 -19 27 -37 30 -40 3 -3 17 -21 30 -40 13 -19 30 -41 37 -48 7 -7 20 -26 30 -42 9 -17 21 -30 25 -30 4 0 8 -5 8 -11 0 -5 18 -37 40 -69 22 -32 40 -64 40 -69 0 -6 4 -11 9 -11 5 0 11 -8 14 -17 8 -24 40 -77 50 -81 4 -2 7 -12 7 -22 0 -10 3 -20 8 -22 10 -4 132 -250 132 -265 0 -7 5 -13 10 -13 6 0 10 -7 10 -15 0 -8 4 -23 9 -33 11 -22 31 -70 64 -152 5 -14 13 -33 18 -42 5 -10 9 -25 9 -33 0 -8 5 -24 10 -35 6 -11 15 -29 20 -40 6 -11 10 -29 10 -39 0 -11 5 -23 10 -26 6 -3 10 -19 10 -35 0 -16 5 -32 10 -35 6 -3 10 -19 10 -35 0 -16 5 -32 10 -35 6 -3 10 -19 10 -35 0 -16 4 -31 9 -34 8 -6 14 -31 27 -119 4 -20 10 -40 15 -43 5 -3 9 -22 9 -43 0 -20 4 -41 9 -46 5 -6 12 -30 15 -55 3 -25 10 -74 16 -110 17 -101 30 -196 42 -310 17 -158 18 -7309 0 -7545 -19 -265 -45 -461 -81 -628 -6 -26 -15 -66 -20 -90 -6 -23 -13 -55 -16 -72 -4 -16 -10 -39 -15 -50 -9 -21 -18 -59 -27 -113 -3 -18 -9 -35 -14 -38 -5 -3 -9 -16 -9 -29 0 -13 -4 -27 -10 -30 -5 -3 -10 -17 -10 -30 0 -13 -4 -27 -10 -30 -5 -3 -10 -17 -10 -30 0 -13 -4 -27 -10 -30 -5 -3 -10 -15 -10 -26 0 -10 -4 -27 -9 -37 -5 -9 -13 -28 -18 -42 -6 -14 -16 -38 -23 -55 -7 -16 -16 -39 -20 -50 -9 -23 -48 -112 -61 -137 -5 -10 -9 -25 -9 -33 0 -8 -4 -15 -10 -15 -5 0 -10 -9 -10 -20 0 -11 -4 -20 -10 -20 -5 0 -10 -9 -10 -20 0 -11 -4 -20 -10 -20 -5 0 -10 -9 -10 -20 0 -11 -4 -20 -10 -20 -5 0 -10 -9 -10 -20 0 -11 -3 -20 -7 -20 -5 0 -13 -10 -18 -23 -15 -31 -59 -111 -65 -117 -10 -10 -41 -65 -47 -83 -3 -9 -9 -17 -14 -17 -5 0 -9 -5 -9 -10 0 -12 -95 -155 -122 -184 -10 -11 -18 -24 -18 -29 0 -5 -8 -17 -18 -26 -10 -9 -29 -32 -42 -51 -13 -19 -30 -41 -37 -48 -7 -8 -26 -30 -40 -50 -36 -49 -338 -350 -385 -385 -20 -15 -42 -33 -50 -40 -7 -7 -29 -24 -48 -37 -19 -13 -37 -27 -40 -30 -11 -14 -160 -110 -170 -110 -5 0 -10 -3 -10 -7 0 -5 -10 -13 -23 -19 -60 -30 -112 -60 -115 -66 -2 -5 -9 -8 -16 -8 -7 0 -42 -14 -77 -31 -35 -18 -75 -36 -89 -41 -14 -6 -33 -14 -42 -19 -10 -5 -27 -9 -37 -9 -11 0 -23 -4 -26 -10 -3 -5 -17 -10 -30 -10 -13 0 -27 -5 -30 -10 -3 -6 -19 -10 -35 -10 -16 0 -32 -4 -35 -10 -3 -5 -21 -10 -39 -10 -17 0 -36 -4 -42 -9 -5 -5 -31 -12 -59 -15 -27 -4 -84 -11 -125 -17 -53 -8 -859 -13 -2707 -15 l-2633 -4 0 6970 0 6970 2638 -4 c1831 -2 2661 -7 2717 -15z m8450 0 c44 -6 103 -13 130 -17 28 -3 54 -10 59 -15 6 -5 25 -9 42 -9 18 0 36 -4 39 -10 3 -5 19 -10 35 -10 16 0 32 -4 35 -10 3 -5 17 -10 30 -10 13 0 27 -4 30 -10 3 -5 15 -10 26 -10 10 0 28 -4 39 -10 11 -5 29 -14 40 -20 11 -5 27 -10 35 -10 8 0 15 -4 15 -10 0 -5 6 -10 13 -10 12 0 177 -79 187 -90 3 -3 16 -11 29 -18 13 -8 39 -23 59 -33 39 -23 184 -119 192 -128 3 -4 25 -22 50 -41 25 -19 47 -37 50 -40 3 -3 34 -30 70 -60 83 -70 212 -200 270 -270 24 -30 52 -62 60 -70 9 -8 31 -35 50 -60 19 -25 37 -47 40 -50 3 -3 17 -21 30 -40 13 -19 30 -41 37 -48 7 -7 13 -17 13 -22 0 -5 6 -15 13 -22 22 -22 77 -106 77 -117 0 -6 4 -11 9 -11 5 0 13 -9 16 -20 3 -11 12 -26 18 -33 12 -13 15 -17 58 -97 13 -25 26 -47 29 -50 6 -6 141 -280 172 -350 20 -43 30 -67 51 -120 5 -14 13 -33 18 -42 5 -10 9 -25 9 -33 0 -15 4 -25 28 -72 7 -13 12 -32 12 -42 0 -11 5 -23 10 -26 6 -3 10 -17 10 -30 0 -13 5 -27 10 -30 6 -3 10 -17 10 -31 0 -13 4 -32 9 -42 14 -29 31 -87 31 -110 0 -11 5 -24 10 -27 6 -3 10 -21 10 -40 0 -19 4 -36 9 -39 5 -3 11 -23 14 -43 3 -21 11 -63 17 -93 46 -235 66 -386 79 -610 12 -202 12 -7175 0 -7380 -11 -191 -29 -353 -58 -510 -6 -30 -13 -73 -16 -95 -4 -22 -10 -49 -15 -60 -5 -11 -11 -33 -14 -50 -2 -16 -10 -50 -16 -75 -6 -25 -14 -60 -17 -78 -3 -18 -9 -35 -14 -38 -5 -3 -9 -18 -9 -34 0 -16 -4 -32 -10 -35 -5 -3 -10 -17 -10 -30 0 -13 -4 -27 -10 -30 -5 -3 -10 -17 -10 -31 0 -13 -4 -33 -10 -44 -5 -11 -14 -29 -20 -40 -5 -11 -10 -27 -10 -35 0 -8 -4 -23 -9 -33 -5 -9 -13 -28 -18 -42 -33 -82 -53 -130 -64 -152 -5 -10 -9 -25 -9 -33 0 -8 -4 -15 -10 -15 -5 0 -10 -6 -10 -12 0 -16 -142 -302 -152 -306 -5 -2 -8 -12 -8 -23 0 -10 -4 -19 -9 -19 -5 0 -11 -8 -14 -17 -7 -21 -37 -72 -54 -90 -6 -7 -15 -22 -18 -33 -3 -11 -11 -20 -16 -20 -5 0 -9 -5 -9 -11 0 -11 -55 -95 -77 -117 -7 -7 -13 -17 -13 -22 0 -5 -6 -15 -13 -22 -7 -7 -24 -29 -37 -48 -13 -19 -31 -42 -40 -50 -9 -8 -27 -31 -40 -50 -67 -95 -347 -376 -462 -462 -20 -15 -42 -34 -50 -41 -21 -21 -226 -157 -237 -157 -5 0 -11 -3 -13 -7 -4 -11 -48 -36 -158 -89 -52 -25 -112 -55 -133 -65 -22 -10 -45 -19 -53 -19 -8 0 -22 -4 -32 -9 -30 -15 -66 -28 -112 -41 -25 -7 -54 -16 -65 -20 -11 -5 -36 -11 -55 -15 -19 -3 -57 -10 -85 -16 -153 -31 -246 -33 -1590 -33 -1459 0 -1473 1 -1685 54 -25 6 -60 14 -78 17 -18 3 -35 9 -38 14 -3 5 -14 9 -25 9 -10 0 -27 4 -37 9 -9 5 -28 13 -42 18 -44 18 -84 35 -102 44 -10 5 -25 9 -33 9 -8 0 -15 5 -15 10 0 6 -6 10 -14 10 -12 0 -135 59 -146 70 -10 10 -65 41 -82 47 -10 3 -18 9 -18 13 0 4 -13 13 -30 20 -16 7 -30 16 -30 20 0 4 -13 13 -30 20 -16 7 -30 15 -30 19 0 4 -13 15 -30 24 -16 10 -35 23 -42 30 -8 7 -34 28 -58 47 -123 96 -351 324 -432 432 -15 20 -34 42 -41 50 -7 7 -24 29 -37 48 -13 19 -30 41 -37 48 -7 7 -20 26 -30 42 -9 17 -21 30 -25 30 -4 0 -8 6 -8 13 0 7 -9 23 -20 35 -11 12 -20 25 -20 30 0 4 -8 17 -17 28 -17 19 -24 31 -55 87 -7 12 -15 24 -18 27 -9 9 -41 65 -58 103 -9 20 -20 37 -24 37 -5 0 -8 9 -8 19 0 11 -3 21 -7 23 -11 4 -53 87 -53 104 0 8 -4 14 -10 14 -5 0 -10 9 -10 20 0 11 -4 20 -10 20 -5 0 -10 6 -10 13 0 8 -6 27 -14 43 -15 32 -44 99 -56 129 -4 11 -13 34 -20 50 -7 17 -17 41 -23 55 -5 14 -13 33 -18 42 -5 10 -9 27 -9 37 0 11 -4 23 -10 26 -5 3 -10 17 -10 30 0 13 -4 27 -10 30 -5 3 -10 17 -10 30 0 13 -4 27 -10 30 -5 3 -10 17 -10 31 0 13 -4 32 -9 42 -14 29 -31 87 -31 110 0 11 -4 24 -10 27 -5 3 -10 21 -10 40 0 19 -4 37 -10 40 -5 3 -10 23 -10 44 0 20 -4 41 -9 47 -5 5 -11 27 -15 49 -3 22 -10 67 -16 100 -69 385 -68 310 -68 4205 -1 3895 -2 3829 68 4215 6 33 13 78 16 100 4 22 10 44 15 49 5 6 9 27 9 47 0 21 5 41 10 44 6 3 10 21 10 40 0 19 5 37 10 40 6 3 10 16 10 27 0 23 17 81 31 110 5 10 9 29 9 42 0 14 5 28 10 31 6 3 10 17 10 30 0 13 5 27 10 30 6 3 10 16 10 29 0 12 4 26 8 32 4 5 14 27 21 49 12 39 17 53 40 108 6 15 16 39 22 55 6 15 15 35 20 44 5 10 9 25 9 33 0 8 5 15 10 15 6 0 10 6 10 14 0 8 9 31 19 53 11 21 38 74 59 118 48 97 85 168 92 175 3 3 11 15 18 28 6 12 18 32 25 45 6 12 14 24 17 27 3 3 10 14 16 25 27 50 40 70 57 89 9 11 17 26 17 33 0 7 4 13 8 13 4 0 15 12 24 28 9 15 28 41 42 57 14 17 26 34 26 39 0 5 8 16 18 25 10 9 29 32 42 51 13 19 31 42 40 50 8 8 36 40 60 70 57 69 221 233 286 285 27 22 56 47 64 55 8 9 31 27 50 40 19 13 41 30 48 37 7 7 26 20 42 30 17 9 30 21 30 25 0 4 6 8 13 8 7 0 22 8 33 18 19 16 31 23 87 55 12 6 24 14 27 17 5 5 64 37 128 69 61 31 134 63 212 94 14 5 33 13 42 18 10 5 29 9 42 9 14 0 27 4 30 9 3 5 18 11 33 14 16 3 48 11 73 17 83 21 144 31 238 40 52 5 97 11 100 14 11 11 2742 -1 2827 -13z m8610 1 c44 -6 103 -15 130 -21 28 -6 66 -13 85 -16 19 -4 44 -10 55 -15 11 -4 40 -13 65 -20 46 -13 82 -26 112 -41 10 -5 27 -9 38 -9 11 0 20 -4 20 -10 0 -5 7 -10 15 -10 8 0 23 -4 33 -9 9 -5 53 -27 97 -48 119 -59 170 -87 173 -95 2 -5 8 -8 13 -8 10 0 159 -97 169 -110 3 -3 21 -17 40 -30 19 -13 41 -30 48 -37 8 -7 30 -25 50 -40 47 -35 349 -336 385 -385 14 -20 32 -42 39 -50 7 -7 25 -29 39 -48 15 -19 36 -46 48 -59 11 -13 21 -28 21 -32 0 -4 6 -14 13 -21 22 -22 117 -166 117 -178 0 -5 4 -10 9 -10 5 0 13 -9 16 -20 3 -11 12 -26 18 -32 7 -7 22 -32 35 -55 12 -24 32 -62 45 -85 12 -24 25 -44 30 -46 4 -2 7 -12 7 -23 0 -10 5 -19 10 -19 6 0 10 -9 10 -20 0 -11 5 -20 10 -20 6 0 10 -9 10 -20 0 -11 5 -20 10 -20 6 0 10 -9 10 -20 0 -11 5 -20 10 -20 6 0 10 -6 10 -13 0 -8 6 -27 14 -43 14 -30 42 -93 57 -131 5 -13 14 -35 20 -50 7 -16 16 -39 22 -53 5 -14 13 -33 18 -42 5 -10 9 -26 9 -36 0 -10 4 -22 8 -28 5 -5 14 -29 21 -54 7 -25 17 -53 22 -62 5 -10 9 -27 9 -37 0 -11 5 -23 10 -26 6 -3 10 -19 10 -35 0 -16 5 -32 10 -35 6 -3 10 -19 10 -35 0 -16 5 -32 10 -35 6 -3 10 -21 10 -40 0 -19 5 -37 10 -40 6 -3 10 -24 10 -45 0 -21 5 -42 10 -45 6 -3 10 -24 10 -45 0 -21 5 -42 10 -45 6 -3 10 -28 10 -54 0 -26 4 -51 9 -57 5 -5 12 -34 15 -64 3 -30 10 -93 16 -140 29 -244 32 -364 36 -1703 l4 -1387 -1392 2 -1393 3 -5 1135 -5 1135 -27 38 c-49 72 26 67 -1084 67 l-1005 0 -43 -43 c-40 -40 -43 -48 -49 -113 -9 -90 -9 -6098 0 -6188 6 -65 9 -73 49 -113 l43 -43 1005 0 c1110 0 1035 -5 1084 67 l27 38 3 1217 3 1218 22 5 c12 3 639 4 1392 3 l1370 -3 0 -1450 c-1 -1549 -3 -1635 -55 -1945 -6 -36 -13 -87 -16 -115 -3 -27 -10 -54 -15 -59 -5 -6 -9 -27 -9 -47 0 -21 -4 -41 -10 -44 -5 -3 -10 -24 -10 -45 0 -21 -4 -42 -10 -45 -5 -3 -10 -21 -10 -40 0 -19 -4 -37 -10 -40 -5 -3 -10 -19 -10 -35 0 -16 -4 -32 -10 -35 -5 -3 -10 -19 -10 -35 0 -16 -4 -32 -10 -35 -5 -3 -10 -15 -10 -26 0 -10 -4 -27 -9 -37 -5 -9 -15 -37 -22 -62 -7 -25 -16 -49 -21 -54 -4 -6 -8 -18 -8 -28 0 -10 -4 -26 -9 -36 -5 -9 -14 -30 -21 -47 -7 -16 -16 -38 -21 -47 -5 -10 -9 -24 -9 -32 0 -8 -9 -33 -20 -55 -11 -23 -29 -59 -40 -82 -11 -22 -20 -47 -20 -55 0 -8 -4 -14 -10 -14 -5 0 -10 -6 -10 -14 0 -16 -62 -140 -72 -144 -5 -2 -8 -12 -8 -23 0 -10 -3 -19 -7 -19 -5 0 -13 -10 -18 -23 -15 -31 -59 -111 -65 -117 -3 -3 -11 -15 -17 -27 -32 -56 -39 -68 -55 -87 -10 -11 -18 -25 -18 -32 0 -7 -4 -14 -8 -16 -5 -2 -28 -32 -52 -68 -24 -36 -46 -67 -50 -70 -3 -3 -17 -21 -30 -40 -13 -19 -31 -42 -40 -50 -8 -8 -28 -33 -45 -55 -36 -50 -347 -361 -397 -398 -20 -15 -42 -33 -50 -40 -7 -7 -29 -24 -48 -37 -19 -13 -44 -32 -54 -42 -11 -10 -24 -18 -28 -18 -5 0 -18 -9 -30 -20 -12 -11 -28 -20 -35 -20 -7 0 -13 -4 -13 -10 0 -5 -5 -10 -11 -10 -6 0 -24 -9 -39 -20 -16 -11 -52 -33 -82 -48 -29 -16 -62 -33 -73 -39 -27 -14 -153 -73 -185 -85 -14 -6 -33 -14 -42 -19 -10 -5 -27 -9 -37 -9 -11 0 -23 -5 -26 -10 -3 -5 -17 -10 -30 -10 -13 0 -26 -4 -29 -9 -3 -5 -20 -11 -38 -14 -18 -4 -49 -9 -68 -12 -19 -4 -44 -10 -55 -15 -11 -5 -40 -11 -65 -15 -25 -3 -88 -11 -140 -17 -134 -17 -2736 -17 -2865 0 -49 6 -112 14 -140 18 -27 3 -54 10 -59 15 -6 5 -25 9 -42 9 -18 0 -36 5 -39 10 -3 6 -19 10 -35 10 -16 0 -32 5 -35 10 -3 6 -17 10 -30 10 -13 0 -27 5 -30 10 -3 5 -15 10 -26 10 -10 0 -27 4 -37 9 -9 5 -28 13 -42 18 -14 6 -45 20 -68 32 -24 11 -50 21 -58 21 -8 0 -14 5 -14 10 0 6 -9 10 -20 10 -11 0 -20 5 -20 10 0 6 -9 10 -20 10 -11 0 -20 3 -20 8 0 4 -17 15 -37 24 -48 22 -92 48 -117 71 -11 9 -24 17 -28 17 -5 0 -18 9 -30 20 -12 11 -28 20 -35 20 -7 0 -13 4 -13 8 0 4 -12 15 -27 24 -16 9 -39 26 -53 38 -14 12 -41 34 -60 49 -111 84 -336 309 -430 431 -19 25 -42 52 -50 60 -8 8 -26 32 -40 52 -14 21 -28 38 -32 38 -5 0 -8 6 -8 13 0 6 -14 28 -30 47 -16 19 -30 39 -30 43 0 4 -9 17 -20 29 -11 12 -20 28 -20 35 0 7 -4 13 -10 13 -5 0 -10 6 -10 13 0 7 -8 22 -17 33 -18 20 -21 25 -64 104 -13 25 -26 47 -29 50 -7 6 -141 278 -164 332 -34 80 -48 114 -57 136 -5 12 -13 32 -18 45 -5 12 -15 40 -22 62 -7 22 -17 44 -21 49 -4 6 -8 20 -8 32 0 13 -4 26 -10 29 -5 3 -10 17 -10 30 0 13 -4 27 -10 30 -5 3 -10 19 -10 35 0 16 -4 32 -10 35 -5 3 -10 17 -10 30 0 13 -4 27 -10 30 -5 3 -10 21 -10 40 0 19 -4 36 -9 39 -5 3 -11 20 -14 38 -3 18 -11 54 -16 81 -6 26 -16 68 -22 95 -20 91 -42 224 -59 362 -33 262 -34 332 -34 3960 0 3635 0 3690 34 3965 5 44 12 105 15 135 3 30 10 64 15 75 5 11 11 40 14 65 2 25 9 66 15 93 25 108 32 144 38 175 3 18 9 35 14 38 5 3 9 20 9 39 0 19 5 37 10 40 6 3 10 19 10 35 0 16 5 32 10 35 6 3 10 17 10 30 0 13 5 27 10 30 6 3 10 17 10 30 0 13 5 27 10 30 6 3 10 17 10 30 0 13 5 27 10 30 6 3 10 15 10 26 0 10 4 27 9 37 5 9 14 31 21 47 7 17 16 38 21 47 5 10 9 27 9 38 0 11 5 20 10 20 6 0 10 7 10 15 0 8 4 23 9 33 37 74 51 106 51 118 0 8 5 14 10 14 6 0 10 6 10 14 0 16 62 140 73 144 4 2 7 12 7 22 0 10 3 20 8 22 6 3 36 55 66 115 6 13 14 23 19 23 4 0 7 5 7 11 0 5 18 37 40 69 22 32 40 63 40 69 0 5 4 11 8 13 5 2 28 32 52 68 24 36 46 67 50 70 3 3 17 21 30 40 13 19 31 42 40 50 8 8 31 35 50 60 42 56 322 335 372 373 20 14 42 33 50 40 7 7 29 24 48 37 19 13 37 27 40 30 10 13 159 110 169 110 5 0 11 3 13 8 3 8 54 36 173 95 44 21 88 43 97 48 10 5 25 9 33 9 8 0 15 5 15 10 0 6 9 10 20 10 11 0 28 4 38 9 28 14 66 29 92 36 14 3 41 11 60 16 110 32 190 47 313 58 48 5 91 11 94 15 11 11 2730 -1 2818 -12z m10865 -1842 l0 -1860 -1210 0 -1210 0 0 -5110 0 -5110 -1395 0 -1395 0 0 5094 c0 2802 -3 5101 -6 5110 -6 14 -122 16 -1215 16 l-1209 0 0 1860 0 1860 3820 0 3820 0 0 -1860z m5765 1841 c44 -6 103 -13 130 -17 28 -3 54 -10 59 -15 6 -5 25 -9 42 -9 18 0 36 -4 39 -10 3 -5 19 -10 35 -10 16 0 32 -4 35 -10 3 -5 17 -10 30 -10 13 0 27 -4 30 -10 3 -5 15 -10 26 -10 10 0 28 -4 39 -10 11 -5 29 -14 40 -20 11 -5 27 -10 35 -10 8 0 15 -4 15 -10 0 -5 6 -10 13 -10 12 0 177 -79 187 -90 3 -3 16 -11 29 -18 13 -8 39 -23 59 -33 39 -23 184 -119 192 -128 3 -4 25 -22 50 -41 25 -19 47 -37 50 -40 3 -3 34 -30 70 -60 83 -70 212 -200 270 -270 24 -30 52 -62 60 -70 9 -8 31 -35 50 -60 19 -25 37 -47 40 -50 3 -3 17 -21 30 -40 13 -19 30 -41 37 -48 7 -7 13 -17 13 -22 0 -5 6 -15 13 -22 22 -22 77 -106 77 -117 0 -6 4 -11 9 -11 5 0 13 -9 16 -20 3 -11 12 -26 18 -33 12 -13 15 -17 58 -97 13 -25 26 -47 29 -50 6 -6 141 -280 172 -350 20 -43 30 -67 51 -120 5 -14 13 -33 18 -42 5 -10 9 -25 9 -33 0 -15 4 -25 28 -72 7 -13 12 -32 12 -42 0 -11 5 -23 10 -26 6 -3 10 -17 10 -30 0 -13 5 -27 10 -30 6 -3 10 -17 10 -31 0 -13 4 -32 9 -42 14 -29 31 -87 31 -110 0 -11 5 -24 10 -27 6 -3 10 -21 10 -40 0 -19 4 -36 9 -39 5 -3 11 -23 14 -43 3 -21 11 -63 17 -93 46 -235 66 -386 79 -610 12 -202 12 -7175 0 -7380 -11 -191 -29 -353 -58 -510 -6 -30 -13 -73 -16 -95 -4 -22 -10 -49 -15 -60 -5 -11 -11 -33 -14 -50 -2 -16 -10 -50 -16 -75 -6 -25 -14 -60 -17 -78 -3 -18 -9 -35 -14 -38 -5 -3 -9 -18 -9 -34 0 -16 -4 -32 -10 -35 -5 -3 -10 -17 -10 -30 0 -13 -4 -27 -10 -30 -5 -3 -10 -17 -10 -31 0 -13 -4 -33 -10 -44 -5 -11 -14 -29 -20 -40 -5 -11 -10 -27 -10 -35 0 -8 -4 -23 -9 -33 -5 -9 -13 -28 -18 -42 -33 -82 -53 -130 -64 -152 -5 -10 -9 -25 -9 -33 0 -8 -4 -15 -10 -15 -5 0 -10 -6 -10 -12 0 -16 -142 -302 -152 -306 -5 -2 -8 -12 -8 -23 0 -10 -4 -19 -9 -19 -5 0 -11 -8 -14 -17 -7 -21 -37 -72 -54 -90 -6 -7 -15 -22 -18 -33 -3 -11 -11 -20 -16 -20 -5 0 -9 -5 -9 -11 0 -11 -55 -95 -77 -117 -7 -7 -13 -17 -13 -22 0 -5 -6 -15 -13 -22 -7 -7 -24 -29 -37 -48 -13 -19 -31 -42 -40 -50 -9 -8 -27 -31 -40 -50 -67 -95 -347 -376 -462 -462 -20 -15 -42 -34 -50 -41 -21 -21 -226 -157 -237 -157 -5 0 -11 -3 -13 -7 -4 -11 -48 -36 -158 -89 -52 -25 -112 -55 -133 -65 -22 -10 -45 -19 -53 -19 -8 0 -22 -4 -32 -9 -30 -15 -66 -28 -112 -41 -25 -7 -54 -16 -65 -20 -11 -5 -36 -11 -55 -15 -19 -3 -57 -10 -85 -16 -153 -31 -246 -33 -1590 -33 -1459 0 -1473 1 -1685 54 -25 6 -60 14 -78 17 -18 3 -35 9 -38 14 -3 5 -14 9 -25 9 -10 0 -27 4 -37 9 -9 5 -28 13 -42 18 -44 18 -84 35 -102 44 -10 5 -25 9 -33 9 -8 0 -15 5 -15 10 0 6 -6 10 -14 10 -12 0 -135 59 -146 70 -10 10 -65 41 -82 47 -10 3 -18 9 -18 13 0 4 -13 13 -30 20 -16 7 -30 16 -30 20 0 4 -13 13 -30 20 -16 7 -30 15 -30 19 0 4 -13 15 -30 24 -16 10 -35 23 -42 30 -8 7 -34 28 -58 47 -123 96 -351 324 -432 432 -15 20 -34 42 -41 50 -7 7 -24 29 -37 48 -13 19 -30 41 -37 48 -7 7 -20 26 -30 42 -9 17 -21 30 -25 30 -4 0 -8 6 -8 13 0 7 -9 23 -20 35 -11 12 -20 25 -20 30 0 4 -8 17 -17 28 -17 19 -24 31 -55 87 -7 12 -15 24 -18 27 -9 9 -41 65 -58 103 -9 20 -20 37 -24 37 -5 0 -8 9 -8 19 0 11 -3 21 -7 23 -11 4 -53 87 -53 104 0 8 -4 14 -10 14 -5 0 -10 9 -10 20 0 11 -4 20 -10 20 -5 0 -10 6 -10 13 0 8 -6 27 -14 43 -15 32 -44 99 -56 129 -4 11 -13 34 -20 50 -7 17 -17 41 -23 55 -5 14 -13 33 -18 42 -5 10 -9 27 -9 37 0 11 -4 23 -10 26 -5 3 -10 17 -10 30 0 13 -4 27 -10 30 -5 3 -10 17 -10 30 0 13 -4 27 -10 30 -5 3 -10 17 -10 31 0 13 -4 32 -9 42 -14 29 -31 87 -31 110 0 11 -4 24 -10 27 -5 3 -10 21 -10 40 0 19 -4 37 -10 40 -5 3 -10 23 -10 44 0 20 -4 41 -9 47 -5 5 -11 27 -15 49 -3 22 -10 67 -16 100 -69 386 -68 311 -68 4210 0 3892 -1 3826 68 4210 6 33 13 78 16 100 4 22 10 44 15 49 5 6 9 27 9 47 0 21 5 41 10 44 6 3 10 21 10 40 0 19 5 37 10 40 6 3 10 16 10 27 0 23 17 81 31 110 5 10 9 29 9 42 0 14 5 28 10 31 6 3 10 17 10 30 0 13 5 27 10 30 6 3 10 16 10 29 0 12 4 26 8 32 4 5 14 27 21 49 12 39 17 53 40 108 6 15 16 39 22 55 6 15 15 35 20 44 5 10 9 25 9 33 0 8 5 15 10 15 6 0 10 6 10 14 0 8 9 31 19 53 11 21 38 74 59 118 48 97 85 168 92 175 3 3 11 15 18 28 6 12 18 32 25 45 6 12 14 24 17 27 3 3 10 14 16 25 27 50 40 70 57 89 9 11 17 26 17 33 0 7 4 13 8 13 4 0 15 12 24 28 9 15 28 41 42 57 14 17 26 34 26 39 0 5 8 16 18 25 10 9 29 32 42 51 13 19 31 42 40 50 8 8 36 40 60 70 57 69 221 233 286 285 27 22 56 47 64 55 8 9 31 27 50 40 19 13 41 30 48 37 7 7 26 20 42 30 17 9 30 21 30 25 0 4 6 8 13 8 7 0 22 8 33 18 19 16 31 23 87 55 12 6 24 14 27 17 5 5 64 37 128 69 61 31 134 63 212 94 14 5 33 13 42 18 10 5 29 9 42 9 14 0 27 4 30 9 3 5 18 11 33 14 16 3 48 11 73 17 83 21 144 31 238 40 52 5 97 11 100 14 11 11 2742 -1 2827 -13z m8905 0 c47 -5 108 -13 135 -17 28 -3 54 -10 60 -15 5 -5 24 -9 41 -9 18 0 36 -4 39 -10 3 -5 19 -10 35 -10 16 0 32 -4 35 -10 3 -5 17 -10 30 -10 13 0 27 -4 30 -10 3 -5 15 -10 26 -10 10 0 27 -4 37 -9 9 -5 28 -13 42 -18 14 -6 45 -20 68 -32 24 -11 50 -21 58 -21 8 0 14 -4 14 -10 0 -5 9 -10 20 -10 11 0 20 -3 20 -8 0 -4 17 -15 38 -24 37 -18 93 -49 102 -58 3 -3 17 -11 33 -19 15 -8 27 -18 27 -23 0 -4 6 -8 13 -8 7 0 22 -8 33 -18 10 -10 35 -28 54 -42 19 -13 37 -27 40 -30 3 -3 23 -18 45 -34 50 -37 341 -328 378 -378 15 -20 33 -42 40 -50 7 -7 24 -29 37 -48 13 -19 27 -37 30 -40 14 -11 110 -160 110 -170 0 -5 3 -10 8 -10 4 0 18 -21 32 -47 13 -27 27 -50 30 -53 8 -8 38 -61 67 -120 15 -30 31 -56 35 -58 4 -2 8 -9 8 -16 0 -11 30 -78 71 -158 5 -10 9 -25 9 -33 0 -8 5 -15 10 -15 6 0 10 -7 10 -15 0 -8 5 -24 10 -35 6 -11 15 -29 20 -40 6 -11 10 -27 10 -35 0 -8 5 -24 10 -35 6 -11 15 -29 20 -40 6 -11 10 -29 10 -39 0 -11 5 -23 10 -26 6 -3 10 -15 10 -26 0 -10 4 -27 9 -37 5 -9 15 -37 21 -62 7 -25 16 -54 20 -65 9 -21 17 -57 26 -110 3 -16 9 -39 14 -50 8 -20 16 -54 26 -125 3 -19 9 -44 14 -55 5 -11 11 -40 14 -65 3 -25 10 -74 16 -110 16 -93 28 -204 42 -370 17 -212 17 -3962 0 -4180 -24 -295 -51 -483 -102 -715 -6 -27 -14 -67 -17 -88 -3 -20 -9 -40 -14 -43 -5 -3 -9 -15 -9 -26 0 -23 -17 -81 -31 -110 -5 -10 -9 -29 -9 -42 0 -14 -4 -28 -10 -31 -5 -3 -10 -17 -10 -30 0 -13 -4 -27 -10 -30 -5 -3 -10 -17 -10 -30 0 -13 -4 -27 -10 -30 -5 -3 -10 -15 -10 -26 0 -10 -4 -27 -9 -37 -9 -17 -23 -51 -40 -94 -14 -38 -33 -82 -42 -100 -5 -10 -9 -25 -9 -33 0 -8 -4 -15 -10 -15 -5 0 -10 -6 -10 -12 0 -13 -99 -218 -110 -228 -3 -3 -14 -23 -26 -45 -30 -59 -47 -88 -61 -102 -6 -7 -15 -22 -18 -33 -3 -11 -11 -20 -16 -20 -5 0 -9 -6 -9 -12 0 -7 -11 -26 -25 -42 -14 -16 -25 -33 -25 -37 0 -4 -6 -14 -13 -21 -7 -7 -24 -29 -37 -48 -13 -19 -31 -42 -40 -50 -9 -8 -27 -31 -40 -50 -29 -43 -291 -305 -342 -343 -20 -15 -42 -33 -50 -40 -22 -22 -226 -157 -238 -157 -5 0 -10 -4 -10 -10 0 -5 -6 -10 -12 -10 -32 -1 -52 -29 -40 -55 7 -14 16 -35 21 -47 5 -13 19 -45 31 -73 12 -27 26 -59 30 -70 4 -11 17 -40 28 -65 11 -25 27 -62 36 -82 18 -43 39 -91 62 -145 9 -21 22 -51 30 -67 8 -16 14 -35 14 -43 0 -7 5 -13 10 -13 6 0 10 -7 10 -15 0 -9 9 -35 20 -57 11 -23 20 -48 20 -55 0 -7 5 -13 10 -13 6 0 10 -7 10 -15 0 -15 4 -25 28 -72 7 -13 12 -30 12 -38 0 -8 5 -15 10 -15 6 0 10 -7 10 -15 0 -8 5 -24 10 -35 6 -11 15 -29 20 -40 6 -11 10 -27 10 -35 0 -8 5 -15 10 -15 6 0 10 -7 10 -15 0 -15 4 -25 28 -72 7 -13 12 -30 12 -38 0 -8 5 -15 10 -15 6 0 10 -7 10 -15 0 -8 4 -23 9 -33 13 -24 52 -113 61 -137 4 -11 18 -42 30 -70 12 -27 26 -59 30 -70 4 -11 18 -42 30 -70 12 -27 26 -59 30 -70 4 -11 18 -42 30 -70 12 -27 26 -59 30 -70 4 -11 18 -42 30 -70 12 -27 26 -59 30 -70 4 -11 17 -40 28 -65 11 -25 27 -62 36 -82 9 -21 23 -54 31 -73 8 -19 21 -50 29 -67 51 -121 77 -181 92 -212 8 -16 14 -35 14 -43 0 -7 5 -13 10 -13 6 0 10 -7 10 -15 0 -8 5 -24 10 -35 6 -11 15 -29 20 -40 6 -11 10 -27 10 -35 0 -8 5 -15 10 -15 6 0 10 -7 10 -15 0 -8 5 -24 10 -35 6 -11 15 -29 20 -40 6 -11 10 -27 10 -35 0 -8 5 -15 10 -15 6 0 10 -7 10 -15 0 -15 4 -25 28 -72 7 -13 12 -30 12 -38 0 -8 5 -15 10 -15 6 0 10 -7 10 -15 0 -15 4 -25 28 -72 7 -13 12 -30 12 -38 0 -8 5 -15 10 -15 6 0 10 -7 10 -15 0 -8 4 -23 9 -33 13 -24 52 -113 61 -137 4 -11 18 -42 30 -70 12 -27 26 -59 30 -70 4 -11 18 -42 30 -70 12 -27 26 -59 30 -70 4 -11 18 -42 30 -70 12 -27 26 -59 30 -70 4 -11 17 -40 28 -65 11 -25 27 -61 35 -80 42 -99 49 -116 58 -132 5 -10 9 -22 9 -28 0 -7 -483 -10 -1468 -10 l-1468 0 -23 53 c-13 28 -30 68 -38 87 -8 19 -21 48 -29 64 -8 16 -14 35 -14 43 0 7 -4 13 -10 13 -5 0 -10 7 -10 15 0 15 -4 25 -28 72 -7 13 -12 30 -12 38 0 8 -4 15 -10 15 -5 0 -10 7 -10 15 0 8 -4 23 -9 33 -13 24 -52 113 -61 137 -4 11 -18 43 -30 70 -12 28 -26 59 -30 70 -4 11 -17 40 -28 65 -11 25 -27 62 -36 83 -9 20 -23 54 -32 75 -9 20 -23 53 -31 72 -8 19 -21 48 -29 64 -8 16 -14 35 -14 43 0 7 -4 13 -10 13 -5 0 -10 7 -10 15 0 8 -5 25 -12 38 -24 47 -28 57 -28 72 0 8 -4 15 -10 15 -5 0 -10 7 -10 15 0 15 -4 25 -28 72 -7 13 -12 30 -12 38 0 8 -4 15 -10 15 -5 0 -10 7 -10 15 0 8 -4 23 -9 33 -13 24 -52 113 -61 137 -4 11 -18 43 -30 70 -12 28 -26 59 -30 70 -4 11 -17 40 -28 65 -22 50 -50 115 -99 230 -8 19 -21 48 -29 64 -8 16 -14 35 -14 43 0 7 -4 13 -10 13 -5 0 -10 7 -10 15 0 15 -4 25 -28 72 -7 13 -12 30 -12 38 0 8 -4 15 -10 15 -5 0 -10 7 -10 15 0 8 -4 23 -9 33 -13 24 -52 113 -61 137 -4 11 -18 43 -30 70 -12 28 -26 59 -30 70 -4 11 -17 40 -28 65 -20 46 -45 102 -67 155 -26 61 -48 111 -61 139 -8 16 -14 35 -14 43 0 7 -4 13 -10 13 -5 0 -10 7 -10 15 0 8 -4 24 -10 35 -5 11 -14 29 -20 40 -5 11 -10 27 -10 35 0 8 -4 15 -10 15 -5 0 -10 7 -10 15 0 8 -4 24 -10 35 -5 11 -14 29 -20 40 -5 11 -10 27 -10 35 0 8 -4 15 -10 15 -5 0 -10 7 -10 15 0 8 -4 23 -9 33 -13 24 -52 113 -61 137 -4 11 -18 43 -30 70 -12 28 -26 59 -30 70 -8 21 -47 110 -60 135 -6 13 -52 15 -321 15 l-314 0 -3 -1897 -2 -1898 -1395 0 -1395 0 0 6970 0 6970 2723 -4 c1872 -2 2749 -7 2807 -15z M4716 14804 c-8 -20 -8 -2668 0 -2688 6 -14 108 -16 1059 -16 692 0 1056 3 1060 10 3 6 13 10 21 10 19 0 64 45 64 64 0 8 5 18 10 21 16 10 14 2499 -2 2527 -23 38 -42 59 -70 74 -43 23 -2133 21 -2142 -2z M31176 14804 c-8 -20 -8 -6448 0 -6468 9 -23 2059 -25 2102 -2 28 15 47 36 70 74 9 17 12 668 12 3162 0 2494 -3 3145 -12 3162 -23 38 -42 59 -70 74 -43 23 -2093 21 -2102 -2z M38952 15585 c-18 -23 -36 -70 -63 -170 -6 -22 -15 -49 -19 -60 -4 -11 -22 -67 -41 -125 -35 -112 -47 -136 -61 -122 -7 7 1 44 44 185 10 34 5 68 -6 36 -29 -86 -66 -207 -66 -218 0 -14 -12 -56 -33 -113 -6 -17 -17 -28 -28 -28 -24 0 -56 -73 -89 -205 -7 -27 -24 -84 -37 -125 -14 -41 -29 -100 -35 -130 -5 -30 -14 -75 -19 -100 -6 -25 -14 -70 -20 -100 -30 -156 -46 -239 -57 -285 -6 -22 -15 -62 -21 -90 -6 -27 -17 -81 -26 -120 -21 -97 -30 -370 -16 -465 15 -94 28 -162 42 -220 7 -25 15 -117 19 -205 7 -150 15 -207 40 -297 5 -21 14 -53 19 -70 9 -35 18 -61 31 -93 4 -11 14 -36 21 -55 49 -136 187 -373 292 -500 6 -8 32 -40 57 -70 25 -30 89 -107 144 -170 94 -110 170 -214 217 -296 59 -105 99 -182 153 -296 34 -74 40 -79 51 -45 7 19 9 17 12 -15 2 -21 8 -38 13 -38 9 0 14 -36 30 -210 8 -76 16 -121 26 -132 29 -31 9 -184 -35 -269 -174 -333 -665 -470 -1321 -369 -36 5 -112 12 -170 15 -58 3 -112 8 -120 11 -8 4 -40 10 -70 15 -89 13 -203 39 -345 78 -41 12 -126 40 -150 51 -11 5 -38 14 -60 21 -22 7 -44 16 -50 19 -5 4 -30 12 -55 19 -25 7 -55 18 -67 23 -31 15 -48 1 -27 -23 22 -24 212 -116 372 -180 12 -5 32 -13 45 -19 51 -21 265 -75 402 -100 33 -7 86 -18 118 -27 85 -21 201 -34 375 -40 166 -6 195 -16 75 -27 -48 -5 -84 -13 -95 -23 -14 -12 -31 -14 -85 -9 -37 4 -120 11 -183 15 -63 5 -146 14 -185 21 -38 6 -99 15 -135 19 -36 5 -101 19 -145 31 -44 12 -93 25 -110 30 -16 4 -50 14 -75 22 -25 8 -79 26 -120 38 -41 13 -79 27 -85 30 -5 4 -30 12 -55 20 -25 7 -49 17 -54 22 -14 11 -96 10 -96 -2 0 -5 6 -10 14 -10 8 0 31 -8 53 -19 21 -10 67 -33 103 -50 81 -40 104 -57 95 -71 -9 -14 30 -49 64 -57 14 -3 31 -9 36 -13 6 -3 30 -12 55 -19 102 -29 186 -54 208 -62 13 -5 36 -9 52 -9 16 0 32 -4 35 -10 3 -5 18 -10 33 -10 15 0 34 -5 42 -11 11 -8 -2 -9 -46 -4 -66 6 -94 0 -94 -20 0 -21 45 -34 225 -66 196 -35 309 -49 613 -75 95 -8 102 -15 31 -33 -78 -20 -79 -53 -3 -73 131 -34 408 -37 589 -7 356 59 682 237 856 466 24 32 52 67 62 77 9 11 17 23 17 27 0 4 17 36 38 70 21 35 49 91 61 124 13 33 26 69 31 80 44 113 69 375 52 563 -9 109 -1 122 41 66 39 -50 217 -227 330 -328 52 -47 109 -110 139 -154 55 -82 54 -81 152 -196 90 -107 135 -155 285 -311 187 -193 351 -385 501 -587 19 -25 46 -53 60 -62 14 -8 58 -47 99 -86 100 -95 120 -77 34 30 -6 8 -33 44 -60 80 -26 36 -56 74 -65 84 -24 26 -24 50 0 37 18 -10 37 -30 92 -101 64 -83 93 -111 103 -101 8 8 -61 115 -130 201 -6 8 -47 62 -90 120 -42 58 -80 107 -83 110 -3 3 -17 21 -31 40 -15 19 -39 49 -53 65 -15 17 -40 57 -56 90 -17 35 -66 101 -118 159 -61 66 -94 112 -102 139 -7 23 -21 52 -31 66 -20 25 -26 55 -10 49 5 -2 34 -26 63 -53 99 -94 238 -215 246 -215 5 0 17 -8 28 -17 10 -10 43 -37 71 -61 56 -47 205 -213 293 -327 98 -127 183 -220 222 -243 16 -9 74 -74 129 -144 56 -71 107 -128 114 -128 11 0 114 -118 172 -196 50 -68 331 -441 420 -555 59 -78 205 -286 303 -434 40 -60 103 -144 139 -185 37 -41 82 -95 101 -120 19 -25 37 -47 40 -50 3 -3 19 -23 35 -44 17 -22 56 -74 89 -115 32 -42 86 -114 120 -160 122 -167 176 -225 176 -190 0 27 -219 368 -327 510 -44 58 -108 147 -142 198 -35 51 -69 100 -76 109 -42 51 -195 262 -195 269 0 4 24 -16 53 -45 29 -29 56 -50 60 -46 3 3 21 -15 39 -41 35 -51 191 -246 288 -360 32 -38 85 -106 117 -150 49 -68 114 -156 205 -277 23 -30 68 -63 68 -50 0 5 -19 38 -41 73 -69 105 -80 128 -73 154 6 25 -16 80 -45 111 -15 16 -145 204 -176 253 -5 9 -14 19 -20 23 -5 4 -7 10 -3 13 3 3 20 -12 37 -33 29 -37 63 -57 75 -45 5 5 -49 91 -64 103 -4 3 -30 39 -58 80 -28 41 -76 109 -105 150 -114 161 -127 180 -127 185 0 2 -14 25 -32 50 -37 53 -32 68 12 31 53 -44 75 -23 45 42 -24 53 -78 160 -105 207 -13 22 -36 64 -53 94 -16 29 -52 90 -79 135 -28 44 -60 97 -71 116 -10 19 -32 54 -48 77 -16 23 -29 44 -29 48 0 3 -27 46 -60 95 -33 49 -60 92 -60 95 0 9 -75 119 -150 220 -178 241 -335 451 -340 455 -3 3 -31 40 -63 82 -31 42 -63 83 -70 90 -6 7 -24 29 -38 48 -15 19 -37 46 -49 60 l-22 25 7 -30 c6 -29 5 -28 -41 20 -224 237 -332 339 -373 358 -28 12 -99 70 -186 151 -77 73 -151 142 -165 155 -14 12 -61 47 -105 77 -143 96 -154 114 -82 132 41 11 40 11 -20 6 l-62 -5 -98 68 c-54 37 -100 70 -103 73 -3 3 -42 36 -87 74 -45 38 -81 72 -78 76 2 4 25 7 51 8 88 1 72 20 -24 27 -56 5 -100 14 -116 24 -31 20 -133 98 -164 127 -12 11 -54 42 -92 70 -81 58 -86 69 -25 61 25 -4 57 -2 72 4 16 6 100 15 188 20 235 13 421 36 555 69 19 5 58 14 85 20 61 14 423 128 447 141 10 5 27 9 37 9 11 0 23 5 26 10 3 6 17 10 30 10 13 0 27 5 30 10 3 6 17 10 30 10 13 0 27 5 30 10 3 6 16 10 29 10 12 0 26 4 32 8 5 4 27 14 49 21 43 13 56 18 127 50 26 12 50 21 53 21 3 0 31 17 63 39 31 21 111 66 177 101 66 34 158 83 205 107 98 52 246 127 340 171 125 59 190 124 107 106 -18 -3 -36 -9 -42 -13 -5 -4 -30 -14 -55 -21 -25 -8 -99 -36 -164 -62 -66 -26 -124 -48 -130 -48 -5 0 -76 -34 -157 -75 -80 -41 -192 -92 -248 -114 -55 -23 -133 -56 -173 -75 -40 -18 -89 -40 -108 -49 -19 -8 -55 -24 -80 -35 -209 -93 -257 -93 -75 1 62 32 75 42 58 45 -32 5 -29 15 10 30 17 8 41 17 52 22 11 4 36 14 55 21 19 7 47 20 61 30 14 10 86 49 160 87 74 38 157 82 184 98 48 29 352 180 445 223 55 25 149 106 110 95 -14 -3 -45 -15 -70 -26 -73 -32 -83 -36 -125 -49 -22 -6 -50 -15 -63 -20 -37 -14 -46 -10 -27 11 18 20 17 20 -19 20 -20 0 -44 -4 -54 -9 -9 -5 -33 -16 -52 -24 -19 -8 -61 -27 -93 -41 -32 -14 -59 -26 -61 -26 -2 0 -50 -22 -107 -48 -150 -70 -198 -92 -204 -92 -13 0 -2 16 18 26 119 57 188 98 183 109 -2 7 1 18 7 24 22 22 -5 25 -46 4 -105 -52 -269 -127 -337 -153 -19 -7 -39 -16 -45 -20 -5 -3 -30 -12 -55 -20 -25 -7 -49 -17 -54 -22 -6 -4 -20 -8 -32 -8 -13 0 -26 -4 -29 -10 -3 -5 -19 -10 -35 -10 -16 0 -32 -4 -35 -10 -6 -10 -65 -14 -65 -4 0 3 14 17 30 31 17 13 30 33 30 43 0 36 -60 35 -355 -1 -572 -69 -1157 2 -1383 169 -39 29 -55 22 -24 -11 23 -25 28 -37 13 -37 -16 0 -156 97 -209 144 -29 27 -58 46 -66 43 -17 -7 -66 43 -97 98 -37 66 -78 149 -79 160 0 6 -18 32 -40 59 -41 50 -100 161 -100 190 0 9 -4 24 -9 34 -73 138 -87 199 -110 482 -26 308 -24 525 4 685 30 172 43 241 56 305 30 136 16 155 -19 28 -74 -272 -96 -469 -97 -853 0 -282 5 -367 35 -550 24 -151 25 -171 6 -156 -15 13 -16 11 -10 -30 3 -24 15 -69 25 -100 10 -30 19 -61 19 -67 0 -22 -20 -12 -32 16 -28 64 -68 104 -68 66 0 -8 -4 -12 -10 -9 -5 3 -10 15 -10 26 0 10 -4 27 -9 37 -5 9 -13 33 -19 52 -37 129 -48 160 -59 160 -22 0 -46 98 -75 305 -15 105 -18 693 -4 798 6 48 6 67 -3 67 -6 0 -11 -10 -11 -22 0 -16 -3 -19 -11 -11 -7 7 -7 22 1 49 6 22 10 66 8 99 l-3 60 -16 -30 c-9 -16 -22 -64 -29 -105 -7 -41 -16 -91 -21 -110 -5 -19 -9 -52 -9 -72 0 -54 -20 -139 -31 -132 -6 3 -7 34 -3 76 7 70 7 70 -15 58 -32 -16 -76 18 -66 51 3 9 10 135 15 280 10 251 16 319 39 469 10 60 16 92 42 205 5 22 13 65 18 95 5 30 13 70 17 88 8 40 -15 44 -44 7z m328 -2536 c0 -5 -4 -9 -10 -9 -5 0 -10 7 -10 16 0 8 5 12 10 9 6 -3 10 -10 10 -16z m-264 -719 c133 -181 238 -279 346 -325 18 -7 47 -25 63 -40 52 -46 109 -82 203 -130 99 -50 104 -55 70 -77 -60 -38 -171 -46 -273 -20 -22 6 -70 18 -106 27 -58 14 -72 23 -124 75 -59 60 -69 86 -21 55 38 -25 32 -11 -20 43 -49 51 -160 191 -183 232 -51 88 -62 116 -57 151 4 22 -2 55 -14 89 -18 50 -18 75 0 68 5 -2 57 -68 116 -148z m1140 -639 c9 -9 30 -13 154 -29 64 -8 93 -24 200 -107 42 -33 102 -78 133 -100 87 -62 82 -64 -108 -35 -128 19 -139 23 -225 80 -47 31 -89 59 -95 61 -25 10 -135 85 -135 91 0 5 18 8 40 8 22 0 40 5 40 10 0 6 -13 10 -29 10 -17 0 -33 5 -36 10 -8 13 47 13 61 1z m-61 -128 c57 -39 96 -76 70 -67 -11 4 -32 16 -47 26 -14 10 -30 18 -34 18 -11 0 -44 31 -44 42 0 14 14 9 55 -19z m566 -218 c106 -9 137 -14 151 -28 7 -7 42 -37 78 -67 36 -30 90 -78 120 -106 30 -29 70 -64 88 -79 37 -31 41 -45 13 -45 -11 0 -23 -4 -26 -10 -16 -26 -166 24 -216 72 -8 7 -34 29 -59 48 -25 19 -47 37 -50 40 -3 3 -56 43 -117 89 -105 78 -131 110 -79 97 13 -3 56 -8 97 -11z m584 -461 c100 -100 116 -130 41 -76 -24 18 -51 30 -59 26 -17 -6 -179 124 -171 138 3 4 25 8 49 8 42 0 48 -4 140 -96z M39320 11955 c0 -2 17 -11 38 -20 20 -9 45 -21 54 -26 23 -12 38 -11 38 1 0 6 -6 10 -13 10 -7 0 -32 9 -55 20 -40 19 -62 25 -62 15z M38820 15368 c0 -19 2 -20 10 -8 13 19 13 30 0 30 -5 0 -10 -10 -10 -22z M40435 13810 c3 -5 17 -10 31 -10 14 0 22 4 19 10 -3 6 -17 10 -31 10 -14 0 -22 -4 -19 -10z M40625 13621 c-3 -6 8 -20 25 -32 16 -13 30 -29 30 -36 0 -15 -16 -17 -25 -3 -9 14 -35 12 -35 -2 0 -7 23 -35 50 -62 33 -32 50 -57 50 -73 0 -13 7 -35 16 -48 11 -16 14 -34 9 -54 -9 -41 -20 -46 -51 -22 -15 12 -36 21 -48 21 -11 0 -45 16 -75 35 -42 27 -58 32 -73 24 -10 -5 -23 -7 -29 -4 -5 4 -50 9 -99 11 -94 5 -174 -19 -211 -63 -18 -20 -39 -108 -39 -159 0 -53 32 -46 59 14 34 75 48 97 66 100 15 3 16 -5 14 -69 -3 -51 0 -74 9 -77 6 -2 12 1 12 7 0 6 9 11 20 11 24 0 24 -7 4 -85 -9 -33 -18 -70 -21 -83 -3 -12 -9 -25 -14 -28 -5 -3 -9 -16 -9 -29 0 -21 5 -24 70 -30 75 -8 142 -46 154 -90 3 -10 8 -16 12 -12 4 4 3 17 -3 30 -49 103 -53 125 -24 151 31 28 93 4 144 -56 44 -53 84 -63 80 -22 -2 22 19 34 61 34 10 0 50 -30 88 -67 38 -38 73 -69 77 -71 13 -5 22 28 12 45 -8 16 19 86 39 98 6 4 10 65 10 153 0 130 -3 150 -20 172 -12 16 -20 41 -20 68 0 114 -169 312 -266 312 -23 0 -45 -4 -49 -9z M40420 13570 c31 -57 155 -113 175 -79 11 17 -25 48 -64 55 -20 4 -50 15 -67 25 -42 26 -58 25 -44 -1z M40004 13475 c-15 -20 -24 -38 -20 -42 7 -7 53 33 67 60 18 33 -19 19 -47 -18z M42368 11735 c-2 -3 -41 -18 -85 -34 -45 -16 -96 -36 -115 -44 -18 -8 -50 -22 -71 -31 -40 -18 -41 -42 -1 -32 14 4 50 18 82 32 31 15 73 33 92 41 72 31 140 65 140 69 0 6 -36 5 -42 -1z M41940 9334 c0 -18 153 -230 220 -304 78 -86 119 -141 161 -217 31 -55 102 -153 111 -153 4 0 -6 26 -21 58 -16 31 -39 80 -52 107 -33 70 -152 249 -255 383 -14 17 -33 32 -43 32 -11 0 -38 23 -61 50 -38 45 -60 61 -60 44z M42150 8603 c0 -13 47 -80 112 -160 111 -136 87 -85 -39 84 -53 71 -73 92 -73 76z M42980 7910 c0 -5 27 -45 60 -88 89 -117 136 -154 68 -53 -78 113 -128 169 -128 141z M64945 14808 c-30 -16 -65 -55 -65 -73 0 -8 -4 -15 -10 -15 -7 0 -10 -1057 -10 -3150 0 -2093 3 -3150 10 -3150 6 0 10 -7 10 -15 0 -8 8 -24 18 -36 43 -51 -2 -49 1072 -49 846 0 1005 2 1028 14 28 15 47 36 70 74 9 17 12 668 12 3162 0 2494 -3 3145 -12 3162 -23 38 -42 59 -70 74 -35 18 -2020 21 -2053 2z M73596 14804 c-3 -9 -6 -613 -6 -1344 0 -731 3 -1335 6 -1344 6 -14 108 -16 1059 -16 692 0 1056 3 1060 10 3 6 13 10 21 10 19 0 64 45 64 64 0 8 5 18 10 21 16 10 14 2499 -2 2527 -23 38 -42 59 -70 74 -43 23 -2133 21 -2142 -2z M34830 2903 c-30 -2 -59 -8 -64 -14 -6 -5 61 -9 180 -9 112 0 183 4 174 9 -18 11 -213 20 -290 14z M37078 2902 c-113 -14 -67 -22 118 -22 113 0 183 4 174 9 -21 12 -222 21 -292 13z M41145 2903 c-94 -10 -53 -23 75 -23 81 0 130 4 125 9 -12 11 -144 20 -200 14z M53405 2903 c-33 -2 -64 -8 -69 -14 -6 -5 64 -9 189 -9 121 0 195 4 190 9 -12 11 -222 20 -310 14z M57168 2901 c-113 -13 -67 -21 117 -21 114 0 185 4 180 9 -13 12 -224 21 -297 12z M62498 2901 c-130 -12 -79 -21 123 -21 120 0 198 4 189 9 -21 12 -230 20 -312 12z M71990 2903 c-30 -2 -59 -8 -64 -14 -6 -5 59 -9 174 -9 112 0 180 4 175 9 -12 11 -205 20 -285 14z"/><path fill="#FFFFFF" d="M34695 2870 c-3 -5 -17 -10 -31 -10 -13 0 -24 -4 -24 -10 0 -5 -6 -10 -14 -10 -17 0 -100 -42 -104 -52 -2 -5 -9 -8 -16 -8 -7 0 -21 -8 -32 -18 -10 -10 -35 -29 -54 -42 -43 -30 -159 -146 -197 -197 -15 -21 -36 -47 -45 -57 -10 -11 -18 -26 -18 -33 0 -7 -4 -13 -8 -13 -7 0 -119 -216 -143 -275 -19 -45 -68 -214 -79 -270 -25 -124 -29 -153 -41 -283 -29 -306 38 -663 179 -952 79 -165 255 -381 372 -460 19 -13 37 -27 40 -30 9 -9 63 -39 120 -66 30 -14 63 -30 72 -35 10 -5 29 -9 42 -9 14 0 28 -5 31 -10 3 -6 26 -10 50 -10 24 0 47 -4 50 -10 8 -13 182 -13 190 0 3 6 22 10 42 10 71 0 272 83 331 137 7 7 26 20 42 29 73 44 241 238 309 357 12 20 30 53 41 72 11 20 20 42 20 50 0 8 5 15 10 15 6 0 10 7 10 15 0 8 4 23 9 33 5 9 14 31 21 47 7 17 16 38 21 47 5 10 9 27 9 37 0 11 5 23 10 26 6 3 10 19 10 35 0 16 4 31 9 34 5 3 11 23 14 43 3 21 11 63 17 93 35 182 43 398 22 575 -6 55 -15 123 -18 150 -3 28 -10 54 -15 60 -5 5 -9 24 -9 41 0 18 -4 36 -10 39 -5 3 -10 19 -10 35 0 16 -4 32 -10 35 -5 3 -10 15 -10 26 0 10 -4 27 -9 37 -5 9 -13 28 -18 42 -6 14 -15 36 -20 50 -77 194 -263 450 -393 540 -19 14 -44 32 -54 42 -11 10 -25 18 -32 18 -7 0 -14 3 -16 8 -3 7 -104 58 -161 81 -36 14 -493 15 -502 1z m380 -190 c28 -6 62 -13 78 -17 15 -3 27 -9 27 -14 0 -5 6 -9 14 -9 17 0 100 -42 104 -52 2 -5 9 -8 15 -8 31 0 177 -141 254 -245 50 -66 137 -229 163 -305 7 -19 15 -44 20 -55 17 -47 30 -93 30 -111 0 -11 4 -24 9 -29 9 -10 13 -31 33 -195 20 -159 11 -359 -22 -515 -6 -27 -14 -65 -17 -83 -3 -18 -9 -35 -14 -38 -5 -3 -9 -16 -9 -30 0 -13 -4 -32 -9 -42 -5 -9 -14 -29 -20 -44 -6 -16 -16 -40 -22 -55 -69 -169 -208 -362 -324 -448 -22 -16 -42 -32 -45 -35 -16 -16 -160 -90 -176 -90 -8 0 -22 -4 -32 -9 -69 -36 -365 -36 -388 0 -3 5 -12 9 -20 9 -71 0 -294 162 -379 275 -17 22 -36 46 -42 53 -25 26 -117 198 -154 287 -195 473 -106 1147 200 1510 59 69 173 175 189 175 5 0 17 8 28 18 10 9 42 28 69 41 28 13 58 27 67 32 10 5 27 9 37 9 11 0 23 5 26 10 3 6 23 10 43 11 20 0 46 5 57 10 23 10 137 4 210 -11z M36940 2871 c-8 -5 -26 -13 -40 -18 -49 -19 -149 -72 -160 -83 -3 -3 -21 -17 -40 -29 -48 -32 -221 -208 -245 -248 -11 -18 -23 -33 -27 -33 -4 0 -8 -6 -8 -13 0 -7 -8 -22 -17 -33 -10 -11 -24 -30 -31 -42 -164 -287 -240 -603 -229 -957 8 -250 13 -279 77 -520 40 -150 170 -402 269 -519 33 -39 150 -156 176 -176 50 -39 115 -80 124 -80 6 0 11 -3 11 -7 0 -9 49 -33 67 -33 7 0 13 -4 13 -9 0 -5 10 -11 23 -14 12 -3 40 -11 62 -17 259 -75 509 -26 735 143 62 46 155 139 197 195 15 20 30 39 34 42 13 12 69 100 69 109 0 6 3 11 8 11 4 0 12 10 18 23 7 12 23 45 37 72 22 44 39 82 67 150 5 11 14 38 21 60 6 22 15 48 20 57 5 10 9 29 9 42 0 14 4 27 9 30 5 3 11 23 15 43 3 21 10 65 16 98 45 255 28 623 -39 855 -5 19 -13 46 -16 60 -6 24 -10 34 -36 98 -7 15 -15 36 -19 47 -11 29 -74 159 -80 165 -3 3 -11 15 -17 27 -27 48 -38 67 -50 82 -7 9 -32 43 -56 76 -40 53 -137 152 -193 195 -45 36 -113 80 -123 80 -6 0 -11 5 -11 10 0 6 -9 10 -20 10 -11 0 -20 5 -20 10 0 6 -7 10 -15 10 -8 0 -24 5 -35 10 -11 6 -29 15 -40 20 -24 12 -488 13 -510 1z m380 -187 c25 -3 49 -10 55 -15 5 -5 19 -9 31 -9 13 0 26 -4 29 -10 3 -5 15 -10 26 -10 10 0 19 -4 19 -10 0 -5 9 -10 20 -10 11 0 20 -4 20 -10 0 -5 5 -10 11 -10 41 0 213 -158 292 -268 48 -68 126 -209 147 -267 4 -11 12 -31 18 -45 6 -14 16 -43 23 -65 6 -22 15 -48 20 -57 5 -10 9 -30 9 -46 0 -15 4 -32 9 -37 37 -40 45 -492 11 -665 -6 -30 -14 -72 -17 -93 -3 -20 -9 -40 -14 -43 -5 -3 -9 -16 -9 -29 0 -13 -4 -27 -10 -30 -5 -3 -10 -15 -10 -26 0 -10 -4 -27 -9 -37 -5 -9 -13 -28 -19 -42 -22 -57 -58 -128 -84 -167 -15 -23 -28 -44 -28 -47 0 -38 -250 -296 -287 -296 -6 0 -13 -4 -15 -8 -5 -12 -117 -66 -163 -79 -22 -6 -58 -17 -80 -23 -40 -12 -195 -9 -265 5 -34 6 -46 10 -100 33 -14 6 -40 16 -57 24 -18 7 -33 16 -33 20 0 5 -5 8 -11 8 -34 0 -216 162 -270 240 -13 19 -29 41 -36 48 -7 7 -13 17 -13 22 0 5 -6 15 -13 22 -18 19 -97 177 -97 194 0 8 -4 14 -10 14 -5 0 -10 11 -10 24 0 14 -4 28 -10 31 -5 3 -10 17 -10 30 0 13 -4 26 -9 29 -5 3 -11 18 -14 33 -4 16 -11 51 -17 78 -27 124 -34 192 -34 370 0 188 7 291 24 330 5 11 11 36 15 55 3 19 8 50 12 68 3 18 9 35 14 38 5 3 9 14 9 25 0 19 4 28 28 76 7 13 12 30 12 38 0 8 5 15 10 15 6 0 10 6 10 14 0 17 42 100 53 104 4 2 7 8 7 14 0 9 56 96 69 108 4 3 20 23 36 45 63 85 208 203 300 244 17 7 38 17 47 22 10 5 27 9 37 9 11 0 23 5 26 10 3 6 23 10 43 11 20 0 46 5 57 10 20 8 117 5 205 -7z M41015 2857 c-100 -54 -217 -209 -256 -339 -88 -296 -31 -575 181 -899 33 -50 60 -94 60 -98 -1 -15 -18 -31 -165 -151 -60 -49 -211 -206 -244 -254 -41 -59 -111 -194 -111 -213 0 -7 -4 -21 -9 -31 -33 -65 -43 -315 -17 -414 37 -137 88 -232 171 -313 43 -42 63 -56 130 -88 22 -11 48 -23 57 -28 10 -5 33 -9 51 -9 18 0 38 -5 44 -11 17 -17 227 3 239 22 3 5 14 9 25 9 10 0 27 4 37 9 85 42 115 60 167 95 80 53 147 115 267 244 37 40 71 72 76 72 5 0 60 -77 123 -172 152 -230 150 -228 255 -228 l84 0 0 30 c0 17 -4 30 -10 30 -5 0 -10 6 -10 13 0 6 -11 25 -25 41 -13 16 -27 37 -30 47 -4 11 -10 19 -14 19 -4 0 -13 11 -19 25 -7 14 -17 31 -22 38 -6 7 -55 81 -110 164 -111 170 -109 158 -49 248 32 48 107 173 141 235 14 25 35 63 48 85 47 82 80 153 80 170 0 27 -71 115 -93 115 -23 0 -36 -14 -63 -65 -47 -91 -108 -202 -125 -227 -11 -14 -19 -29 -19 -32 0 -9 -109 -172 -123 -184 -11 -9 -18 -7 -34 11 -16 17 -349 508 -398 586 -5 9 -18 28 -27 43 -28 41 -26 44 106 172 150 147 223 238 252 316 6 16 18 45 33 83 49 118 48 351 -1 502 -36 110 -180 314 -223 315 -5 0 -21 9 -35 20 -39 31 -337 28 -395 -3z m272 -148 c77 -32 95 -42 130 -77 48 -46 95 -123 111 -182 8 -25 18 -59 23 -76 18 -62 8 -198 -21 -279 -14 -38 -68 -143 -80 -155 -3 -3 -29 -33 -57 -66 -110 -129 -227 -230 -254 -219 -19 7 -140 193 -183 280 -101 205 -108 411 -20 591 27 55 123 154 150 154 8 0 14 5 14 10 0 6 10 10 23 10 12 0 29 5 37 10 21 13 93 12 127 -1z m-99 -1449 c173 -251 412 -611 412 -622 0 -29 -207 -247 -270 -284 -16 -10 -30 -21 -30 -25 0 -4 -13 -12 -30 -19 -16 -7 -30 -16 -30 -21 0 -5 -9 -9 -20 -9 -11 0 -20 -4 -20 -10 0 -5 -8 -10 -18 -10 -10 0 -22 -3 -26 -7 -28 -29 -249 -47 -294 -24 -9 5 -30 15 -47 22 -72 31 -171 155 -199 249 -11 40 -13 250 -2 295 15 62 76 182 120 240 38 50 200 212 246 247 19 14 49 38 65 52 49 44 69 33 143 -74z M53265 2870 c-3 -5 -14 -10 -25 -10 -21 0 -124 -52 -146 -75 -9 -8 -19 -15 -24 -15 -17 0 -123 -117 -154 -170 -36 -63 -76 -155 -76 -178 0 -9 -4 -29 -9 -46 -43 -140 -24 -375 42 -519 46 -100 116 -188 203 -253 21 -16 48 -37 58 -46 11 -10 25 -18 32 -18 7 0 14 -3 16 -7 4 -11 48 -36 158 -89 52 -25 103 -50 112 -55 10 -5 25 -9 33 -9 8 0 15 -4 15 -10 0 -5 7 -10 15 -10 8 0 25 -5 38 -12 47 -24 57 -28 72 -28 8 0 15 -4 15 -10 0 -5 6 -10 13 -10 15 0 181 -82 185 -92 2 -5 8 -8 14 -8 19 0 104 -65 158 -120 51 -53 89 -116 121 -200 29 -77 16 -290 -24 -380 -33 -73 -143 -200 -174 -200 -7 0 -13 -3 -13 -8 0 -4 -15 -13 -32 -20 -18 -7 -41 -18 -50 -23 -10 -5 -27 -9 -37 -9 -11 0 -22 -4 -25 -9 -20 -32 -290 -32 -411 1 -67 18 -164 60 -199 88 -130 101 -183 185 -212 334 -7 38 -21 77 -30 87 -23 25 -92 26 -110 1 -15 -20 -19 -149 -5 -184 5 -13 15 -43 22 -68 31 -104 115 -231 196 -296 26 -22 50 -41 53 -44 19 -19 161 -90 180 -90 11 0 21 -4 24 -9 21 -33 326 -56 446 -33 120 23 120 23 205 63 94 44 255 176 255 210 0 4 6 14 13 21 6 7 23 36 36 63 13 28 27 58 32 67 5 10 9 26 9 36 0 10 4 22 9 28 23 24 38 285 21 364 -12 61 -27 115 -39 145 -14 35 -36 80 -41 85 -3 3 -12 18 -20 34 -25 49 -160 179 -240 233 -66 44 -207 117 -340 175 -25 11 -53 24 -62 29 -10 5 -25 9 -33 9 -8 0 -15 5 -15 10 0 6 -6 10 -13 10 -13 0 -70 24 -137 59 -221 113 -314 207 -381 380 -17 45 -17 252 0 306 36 113 96 203 171 255 19 13 37 27 40 30 10 11 71 36 144 60 47 15 313 17 353 3 16 -6 46 -16 68 -22 41 -13 86 -32 95 -41 3 -3 18 -12 34 -20 103 -53 226 -249 226 -359 0 -71 51 -115 112 -95 35 11 47 34 48 88 0 45 -4 68 -33 171 -55 203 -210 359 -450 454 -36 14 -523 15 -532 1z M57045 2870 c-3 -5 -17 -10 -30 -10 -13 0 -27 -4 -30 -10 -3 -5 -15 -10 -26 -10 -10 0 -19 -4 -19 -10 0 -5 -9 -10 -20 -10 -11 0 -20 -4 -20 -10 0 -5 -5 -10 -11 -10 -20 0 -133 -84 -207 -154 -213 -202 -360 -500 -423 -856 -46 -266 -22 -690 51 -885 4 -11 13 -38 19 -60 7 -22 16 -49 21 -60 32 -77 46 -108 76 -168 103 -205 281 -403 445 -495 52 -29 71 -38 99 -49 14 -6 36 -15 50 -21 77 -31 159 -45 265 -44 96 0 168 8 200 22 11 4 41 14 68 21 26 8 47 17 47 21 0 4 6 8 13 8 18 0 67 24 67 33 0 4 5 7 11 7 11 0 87 50 134 89 98 82 213 218 277 329 45 77 118 236 118 257 0 7 5 17 10 20 6 3 10 17 10 30 0 13 4 26 9 29 5 3 11 18 14 33 3 16 11 48 17 73 39 157 54 285 54 475 0 190 -15 318 -54 475 -6 25 -14 57 -17 73 -3 15 -9 30 -14 33 -5 3 -9 14 -9 25 0 10 -4 27 -9 37 -5 9 -20 44 -32 77 -78 205 -270 465 -419 565 -19 13 -37 27 -40 30 -11 11 -111 64 -160 83 -14 5 -33 13 -42 18 -25 13 -485 12 -493 -1z m365 -186 c25 -3 49 -10 55 -15 5 -5 17 -9 27 -9 10 0 26 -4 36 -9 9 -5 37 -18 62 -30 91 -44 224 -154 288 -240 15 -20 29 -38 33 -41 37 -33 144 -242 185 -365 16 -48 23 -75 45 -175 52 -233 43 -549 -21 -775 -6 -22 -15 -53 -19 -70 -45 -162 -169 -374 -294 -499 -72 -71 -155 -136 -176 -136 -6 0 -11 -3 -11 -8 0 -4 -15 -13 -32 -20 -18 -8 -43 -18 -55 -23 -13 -5 -33 -13 -45 -18 -62 -26 -261 -39 -323 -21 -22 6 -56 16 -75 21 -19 6 -44 14 -55 19 -11 4 -27 11 -35 14 -105 40 -272 188 -368 328 -41 60 -132 238 -132 259 0 8 -4 19 -8 25 -5 5 -14 29 -21 54 -8 25 -17 56 -21 70 -5 14 -14 50 -20 80 -6 30 -16 77 -22 104 -14 64 -14 438 0 502 6 27 16 76 23 109 6 33 15 69 19 80 4 11 17 52 30 90 30 95 93 225 153 315 76 115 272 300 316 300 6 0 11 5 11 10 0 6 9 10 20 10 11 0 20 5 20 10 0 6 7 10 15 10 8 0 23 4 33 9 9 5 35 14 57 19 22 6 58 15 80 20 39 10 137 8 225 -4z M62350 2871 c-51 -27 -61 -31 -75 -31 -8 0 -15 -4 -15 -10 0 -5 -9 -10 -20 -10 -11 0 -20 -4 -20 -8 0 -4 -15 -16 -32 -27 -101 -58 -223 -230 -256 -360 -6 -22 -15 -59 -21 -81 -6 -23 -11 -97 -11 -164 0 -115 4 -142 33 -245 34 -119 153 -278 267 -355 19 -13 37 -27 40 -30 3 -3 15 -11 28 -18 12 -6 32 -18 45 -25 12 -6 24 -14 27 -17 6 -6 120 -61 190 -92 25 -11 53 -24 62 -29 10 -5 25 -9 33 -9 8 0 15 -4 15 -10 0 -5 7 -10 15 -10 8 0 23 -4 33 -9 74 -37 106 -51 118 -51 8 0 14 -4 14 -10 0 -5 9 -10 20 -10 11 0 20 -4 20 -10 0 -5 9 -10 20 -10 11 0 20 -4 20 -10 0 -5 5 -10 11 -10 16 0 129 -78 172 -119 51 -47 111 -136 127 -186 7 -22 16 -50 21 -63 13 -33 11 -217 -2 -266 -22 -81 -73 -170 -129 -226 -57 -57 -165 -120 -206 -120 -12 0 -25 -4 -28 -9 -19 -30 -383 -30 -402 0 -3 5 -16 9 -30 9 -13 0 -32 4 -42 9 -9 5 -30 15 -47 22 -162 72 -280 230 -302 404 -11 85 -98 118 -144 54 -21 -29 -21 -34 -9 -107 14 -89 22 -117 64 -212 40 -92 136 -203 232 -266 56 -38 71 -45 139 -74 17 -7 38 -16 47 -21 10 -5 29 -9 42 -9 14 0 28 -4 31 -10 3 -5 30 -10 60 -10 30 0 57 -5 60 -10 8 -13 202 -13 210 0 3 6 25 10 47 10 76 0 231 60 312 120 127 96 212 226 257 395 28 104 16 366 -21 460 -51 131 -163 274 -270 346 -19 12 -37 26 -40 29 -9 9 -64 41 -82 47 -10 3 -18 9 -18 14 0 5 -9 9 -20 9 -11 0 -20 5 -20 10 0 6 -9 10 -20 10 -11 0 -20 5 -20 10 0 6 -9 10 -20 10 -11 0 -20 5 -20 10 0 6 -6 10 -14 10 -8 0 -34 10 -58 21 -23 12 -52 25 -63 29 -25 9 -108 46 -158 71 -22 11 -45 19 -53 19 -8 0 -14 5 -14 10 0 6 -9 10 -20 10 -11 0 -20 3 -20 8 0 4 -15 13 -32 21 -108 47 -236 163 -285 257 -83 159 -82 330 1 504 45 95 216 230 290 230 12 0 27 5 34 12 15 15 329 15 345 -1 6 -6 21 -11 34 -11 13 0 31 -4 41 -9 9 -5 31 -15 47 -22 161 -72 303 -272 305 -432 1 -35 25 -58 68 -64 56 -8 82 20 81 85 -2 164 -76 337 -195 456 -49 50 -126 106 -143 106 -6 0 -11 3 -11 8 0 4 -15 13 -32 20 -69 28 -84 35 -100 43 -22 11 -517 11 -538 0z M71855 2870 c-3 -5 -14 -10 -24 -10 -20 0 -144 -60 -149 -72 -2 -5 -9 -8 -15 -8 -7 0 -25 -11 -41 -25 -16 -14 -33 -25 -37 -25 -12 0 -171 -160 -204 -205 -17 -22 -32 -42 -35 -45 -28 -25 -109 -169 -159 -281 -85 -192 -151 -515 -151 -741 0 -203 62 -537 130 -693 98 -226 177 -346 326 -492 63 -62 121 -113 129 -113 8 0 15 -4 15 -9 0 -7 144 -82 195 -101 57 -21 95 -30 128 -30 20 0 39 -4 42 -10 8 -13 182 -13 190 0 3 6 26 10 50 10 24 0 47 5 50 10 3 6 17 10 31 10 13 0 32 4 42 9 9 5 42 21 72 35 57 27 111 57 120 66 3 3 21 17 40 30 53 36 156 138 203 200 23 30 44 57 47 60 7 6 41 58 56 85 96 169 98 196 17 253 -49 35 -74 22 -110 -58 -54 -115 -203 -292 -306 -362 -77 -53 -164 -98 -187 -98 -11 0 -21 -4 -24 -9 -20 -31 -372 -31 -392 0 -3 5 -13 9 -24 9 -19 0 -161 71 -180 90 -3 3 -23 18 -45 35 -150 112 -296 334 -373 570 -18 55 -26 86 -52 210 -43 201 -31 487 29 715 5 19 13 46 16 60 4 14 10 34 15 45 4 11 18 47 31 80 38 100 120 239 188 320 68 80 196 195 218 195 6 0 13 3 15 8 4 10 87 52 104 52 8 0 14 4 14 9 0 5 15 12 33 15 17 4 55 12 82 18 66 14 177 14 245 0 30 -6 70 -14 88 -18 17 -3 32 -10 32 -15 0 -5 6 -9 14 -9 17 0 95 -40 114 -57 7 -7 17 -13 22 -13 5 0 15 -6 22 -13 7 -6 37 -32 66 -56 77 -64 174 -193 253 -335 31 -57 57 -58 122 -1 46 39 36 80 -62 243 -63 107 -217 280 -283 320 -16 9 -28 20 -28 24 0 4 -5 8 -11 8 -6 0 -29 13 -52 28 -40 27 -74 44 -127 65 -14 5 -33 13 -42 18 -25 13 -485 12 -493 -1z M32493 2845 c-18 -20 -19 -2755 -1 -2773 16 -16 100 -16 116 0 9 9 12 147 12 560 0 473 2 553 15 578 l16 30 490 0 489 0 10 26 c17 43 12 129 -7 153 -18 21 -23 21 -503 24 l-484 2 -13 25 c-16 32 -19 1074 -2 1133 l10 37 562 0 c657 1 602 -9 602 109 0 122 68 111 -667 111 -534 -1 -635 -3 -645 -15z M38141 2831 c-28 -39 -28 -114 -1 -158 l20 -33 339 0 c300 0 340 -2 345 -16 3 -9 6 -577 6 -1262 0 -985 3 -1252 13 -1272 11 -22 19 -25 67 -25 48 0 56 3 67 25 10 20 13 286 13 1265 0 682 3 1250 6 1263 l6 22 337 0 338 0 21 23 c18 19 22 35 22 94 0 114 82 103 -808 103 l-771 0 -20 -29z M43748 2836 c-16 -13 -28 -30 -28 -39 0 -9 -4 -19 -10 -22 -5 -3 -10 -17 -10 -30 0 -13 -4 -27 -10 -30 -5 -3 -10 -17 -10 -30 0 -13 -4 -27 -10 -30 -5 -3 -10 -17 -10 -30 0 -13 -4 -27 -10 -30 -5 -3 -10 -17 -10 -30 0 -13 -4 -27 -10 -30 -5 -3 -10 -17 -10 -30 0 -13 -4 -27 -10 -30 -5 -3 -10 -17 -10 -30 0 -13 -4 -27 -10 -30 -5 -3 -10 -17 -10 -30 0 -13 -4 -27 -10 -30 -5 -3 -10 -17 -10 -30 0 -13 -4 -27 -10 -30 -5 -3 -10 -17 -10 -30 0 -13 -4 -27 -10 -30 -5 -3 -10 -17 -10 -30 0 -13 -4 -27 -10 -30 -5 -3 -10 -17 -10 -30 0 -13 -4 -27 -10 -30 -5 -3 -10 -15 -10 -26 0 -10 -4 -27 -9 -37 -5 -9 -28 -78 -51 -152 -23 -74 -46 -143 -51 -152 -5 -10 -9 -27 -9 -37 0 -11 -4 -23 -10 -26 -5 -3 -10 -17 -10 -30 0 -13 -4 -27 -10 -30 -5 -3 -10 -17 -10 -30 0 -13 -4 -27 -10 -30 -5 -3 -10 -17 -10 -30 0 -13 -4 -27 -10 -30 -5 -3 -10 -17 -10 -30 0 -13 -4 -27 -10 -30 -5 -3 -10 -17 -10 -30 0 -13 -4 -27 -10 -30 -5 -3 -10 -17 -10 -30 0 -13 -4 -27 -10 -30 -5 -3 -10 -17 -10 -30 0 -13 -4 -27 -10 -30 -5 -3 -10 -17 -10 -30 0 -13 -4 -27 -10 -30 -5 -3 -10 -17 -10 -30 0 -13 -4 -27 -10 -30 -5 -3 -10 -17 -10 -30 0 -13 -4 -27 -10 -30 -5 -3 -10 -17 -10 -30 0 -13 -4 -27 -10 -30 -5 -3 -10 -17 -10 -30 0 -13 -4 -27 -10 -30 -5 -3 -10 -17 -10 -30 0 -13 -4 -27 -10 -30 -5 -3 -10 -17 -10 -30 0 -13 -4 -27 -10 -30 -5 -3 -10 -17 -10 -30 0 -13 -4 -27 -10 -30 -5 -3 -10 -17 -10 -30 0 -13 -4 -27 -10 -30 -5 -3 -10 -17 -10 -30 0 -13 -4 -27 -10 -30 -5 -3 -10 -15 -10 -26 0 -10 -4 -27 -9 -37 -7 -14 -75 -219 -148 -452 -24 -75 -14 -90 62 -90 78 0 79 2 125 145 18 55 36 108 41 117 5 10 9 27 9 37 0 11 5 23 10 26 6 3 10 17 10 30 0 13 5 27 10 30 6 3 10 15 10 26 0 10 4 27 9 37 5 9 17 43 26 75 9 31 25 67 35 80 l18 22 617 0 c576 0 617 -1 629 -18 8 -9 35 -83 61 -165 26 -81 51 -155 56 -164 5 -10 9 -27 9 -37 0 -11 5 -23 10 -26 6 -3 10 -17 10 -30 0 -13 5 -27 10 -30 6 -3 10 -17 10 -30 0 -13 5 -27 10 -30 6 -3 10 -13 10 -22 0 -8 9 -28 21 -44 18 -26 26 -29 78 -29 99 0 100 -19 -39 403 -67 205 -126 381 -130 392 -4 11 -31 94 -60 185 -29 91 -56 173 -61 182 -5 10 -9 27 -9 37 0 11 -4 23 -10 26 -5 3 -10 17 -10 30 0 13 -4 27 -10 30 -5 3 -10 17 -10 30 0 13 -4 27 -10 30 -5 3 -10 17 -10 30 0 13 -4 27 -10 30 -5 3 -10 17 -10 30 0 13 -4 27 -10 30 -5 3 -10 17 -10 30 0 13 -4 27 -10 30 -5 3 -10 17 -10 30 0 13 -4 27 -10 30 -5 3 -10 17 -10 30 0 13 -4 27 -10 30 -5 3 -10 17 -10 30 0 13 -4 27 -10 30 -5 3 -10 17 -10 30 0 13 -4 27 -10 30 -5 3 -10 17 -10 30 0 13 -4 27 -10 30 -5 3 -10 17 -10 30 0 13 -4 27 -10 30 -5 3 -10 17 -10 30 0 13 -4 27 -10 30 -5 3 -10 17 -10 30 0 13 -4 27 -10 30 -5 3 -10 17 -10 30 0 13 -4 27 -10 30 -5 3 -10 17 -10 30 0 13 -4 27 -10 30 -5 3 -10 17 -10 30 0 13 -4 27 -10 30 -5 3 -10 15 -10 26 0 10 -4 27 -9 37 -5 9 -28 78 -51 152 -23 74 -46 143 -51 152 -5 10 -9 27 -9 37 0 11 -4 23 -10 26 -5 3 -10 17 -10 30 0 13 -4 27 -10 30 -5 3 -10 15 -10 26 0 22 -26 67 -50 86 -27 22 -112 16 -142 -11z m112 -328 c12 -40 26 -82 30 -93 4 -11 27 -81 50 -155 23 -74 46 -144 50 -155 4 -11 27 -81 50 -155 23 -74 46 -143 51 -152 5 -10 9 -27 9 -37 0 -11 5 -23 10 -26 6 -3 10 -17 10 -30 0 -13 5 -27 10 -30 6 -3 10 -17 10 -30 0 -13 5 -27 10 -30 6 -3 10 -17 10 -30 0 -13 5 -27 10 -30 6 -3 10 -17 10 -30 0 -13 5 -27 10 -30 6 -3 10 -15 10 -26 0 -10 4 -27 9 -37 5 -9 28 -78 51 -152 23 -74 46 -143 51 -152 5 -10 9 -27 9 -37 0 -11 5 -23 10 -26 6 -3 10 -17 10 -30 0 -13 5 -27 10 -30 6 -3 10 -16 10 -29 0 -12 5 -27 11 -33 7 -7 9 -19 6 -27 -6 -14 -66 -16 -552 -16 l-545 0 0 39 c0 22 5 43 10 46 6 3 10 17 10 30 0 13 5 27 10 30 6 3 10 15 10 26 0 10 4 27 9 37 5 9 33 91 61 182 29 91 70 217 90 280 20 63 61 189 90 280 28 91 56 173 61 182 5 10 9 27 9 37 0 11 5 23 10 26 6 3 10 17 10 30 0 13 5 27 10 30 6 3 10 17 10 30 0 13 5 27 10 30 6 3 10 17 10 30 0 13 5 27 10 30 6 3 10 17 10 30 0 13 5 27 10 30 6 3 10 17 10 30 0 13 5 27 10 30 6 3 10 17 10 30 0 13 5 27 10 30 6 3 10 17 10 30 0 13 5 27 10 30 6 3 10 16 10 29 0 65 34 44 60 -36z M45010 2842 c-22 -24 -23 -2739 -1 -2766 23 -28 112 -18 128 14 10 20 12 266 10 1193 -1 877 1 1167 10 1167 9 0 35 -40 88 -135 26 -47 40 -70 45 -75 3 -3 10 -14 16 -25 46 -86 60 -111 64 -115 3 -3 11 -16 18 -29 21 -36 50 -87 73 -128 12 -21 33 -58 47 -83 13 -25 40 -72 60 -105 19 -33 48 -85 65 -115 17 -30 38 -67 49 -82 10 -14 18 -29 18 -32 0 -3 14 -29 31 -58 30 -49 46 -78 81 -139 7 -13 15 -26 18 -29 4 -4 18 -29 64 -115 6 -11 13 -22 16 -25 3 -3 11 -16 18 -29 21 -36 50 -87 73 -128 12 -21 33 -58 47 -83 13 -25 40 -72 60 -105 19 -33 48 -85 65 -115 17 -30 38 -67 49 -82 10 -14 18 -29 18 -32 0 -3 14 -29 31 -58 30 -49 46 -78 81 -139 7 -13 15 -26 18 -29 3 -3 10 -14 16 -25 46 -87 60 -111 64 -115 3 -3 17 -27 30 -54 41 -79 73 -106 129 -106 26 0 52 5 59 12 9 9 12 330 12 1383 0 1548 8 1405 -78 1405 -37 0 -45 -4 -62 -32 -20 -32 -20 -53 -20 -1197 0 -640 -2 -1166 -4 -1168 -2 -3 -9 4 -15 14 -5 10 -19 34 -31 53 -11 19 -23 43 -26 53 -4 9 -10 17 -15 17 -5 0 -9 4 -9 10 0 5 -14 33 -31 62 -30 50 -39 66 -89 153 -11 19 -29 51 -40 70 -11 19 -29 51 -40 70 -11 19 -29 51 -40 70 -11 19 -29 51 -40 70 -11 19 -29 51 -40 70 -11 19 -29 51 -40 70 -22 39 -51 89 -72 126 -7 13 -15 26 -18 29 -4 4 -18 29 -64 115 -6 11 -13 22 -16 25 -3 3 -11 15 -17 28 -7 12 -19 32 -25 45 -7 12 -15 24 -18 27 -3 3 -14 23 -26 45 -28 53 -64 118 -74 130 -4 6 -21 35 -37 65 -17 30 -53 95 -82 143 -28 49 -51 91 -51 94 0 3 -8 17 -19 31 -18 26 -39 63 -84 147 -12 22 -24 42 -27 45 -3 3 -11 15 -17 27 -7 13 -19 33 -25 45 -7 13 -15 25 -18 28 -5 5 -43 75 -64 117 -6 13 -14 23 -18 23 -5 0 -8 4 -8 10 0 5 -14 33 -31 62 -29 48 -41 69 -81 139 -36 65 -121 93 -158 51z M47130 2842 c-13 -14 -15 -184 -18 -1376 -3 -1536 -10 -1406 77 -1406 79 0 75 -18 81 424 l5 391 25 35 c13 19 45 62 70 95 25 33 75 98 110 145 36 47 67 87 70 90 5 5 94 122 173 228 22 28 47 52 56 52 19 0 30 -16 104 -155 12 -22 24 -42 27 -45 3 -3 14 -23 26 -45 11 -22 31 -58 44 -80 12 -22 33 -59 46 -82 13 -24 35 -63 49 -88 14 -25 36 -65 50 -90 14 -25 37 -66 52 -92 14 -27 38 -70 53 -98 15 -27 37 -67 48 -87 32 -55 61 -107 85 -153 12 -22 24 -42 27 -45 3 -3 14 -23 26 -45 12 -22 33 -61 47 -88 15 -26 39 -68 54 -95 14 -26 35 -64 47 -86 40 -74 60 -86 141 -86 102 0 103 12 18 160 -11 19 -39 71 -63 115 -23 44 -46 85 -50 90 -4 6 -27 46 -50 90 -65 120 -65 120 -70 125 -3 3 -14 23 -26 45 -11 22 -31 58 -44 80 -27 47 -55 98 -100 180 -37 67 -67 123 -97 175 -11 19 -39 71 -63 115 -23 44 -46 85 -50 90 -4 6 -27 46 -50 90 -24 44 -52 95 -62 113 -10 17 -27 49 -39 70 -11 20 -25 41 -30 47 -27 28 -9 85 53 167 35 46 65 85 68 88 3 3 17 21 30 40 13 19 27 37 30 40 3 3 46 59 96 125 150 199 219 290 224 295 3 3 17 21 30 40 13 19 27 37 30 40 18 17 260 341 260 349 0 20 -30 31 -85 31 -73 0 -116 -18 -147 -63 -12 -18 -25 -34 -28 -37 -3 -3 -17 -21 -30 -40 -13 -19 -27 -37 -30 -40 -7 -7 -53 -66 -161 -210 -51 -69 -96 -127 -99 -130 -5 -5 -28 -35 -194 -255 -34 -44 -63 -82 -66 -85 -6 -6 -54 -68 -195 -255 -278 -366 -317 -417 -325 -425 -3 -3 -17 -21 -30 -40 -13 -19 -30 -41 -37 -48 -7 -8 -18 -23 -24 -34 -6 -12 -15 -16 -20 -11 -5 5 -10 369 -11 825 -3 804 -3 817 -23 832 -27 21 -96 20 -115 -2z M48997 2842 c-23 -25 -26 -2735 -3 -2764 12 -17 55 -18 646 -18 728 0 659 -11 660 107 0 111 47 103 -580 103 -294 0 -545 3 -557 6 l-23 6 0 1263 c0 1262 0 1262 -21 1289 -26 33 -96 37 -122 8z M50537 2842 c-23 -25 -26 -2735 -3 -2764 12 -17 57 -18 679 -18 l667 0 16 25 c17 26 17 155 0 172 -4 4 -274 9 -599 11 -411 2 -595 6 -604 13 -19 17 -19 1021 0 1038 9 7 169 11 510 13 391 2 499 6 509 16 23 23 17 161 -7 175 -14 9 -162 13 -520 17 l-500 5 0 545 0 545 590 5 c427 4 596 8 610 17 25 15 30 158 6 186 -22 27 -1330 26 -1354 -1z M54622 2837 l-22 -23 0 -1355 c0 -1534 -8 -1399 82 -1399 81 0 77 -21 78 442 0 314 3 409 13 415 6 4 182 10 389 13 282 4 380 8 390 18 6 6 20 12 30 12 10 0 26 4 36 9 9 5 31 15 47 22 226 101 379 336 445 684 13 71 8 404 -8 480 -67 318 -200 515 -427 635 -31 17 -65 30 -74 30 -9 0 -21 4 -26 9 -20 19 -113 24 -516 28 l-415 3 -22 -23z m820 -188 c69 -11 100 -20 140 -40 10 -5 23 -9 29 -9 15 0 99 -59 134 -95 101 -102 164 -228 200 -397 17 -81 21 -355 6 -404 -5 -16 -14 -54 -21 -84 -27 -118 -126 -287 -210 -356 -19 -16 -41 -34 -47 -41 -15 -14 -104 -55 -154 -71 -51 -17 -730 -17 -747 0 -9 9 -12 188 -12 744 l0 733 22 15 c28 20 541 23 660 5z M58628 2838 c-26 -32 -28 -2719 -2 -2756 17 -25 100 -32 122 -10 9 9 12 128 12 473 0 353 3 465 13 478 11 16 45 17 407 15 l394 -3 102 -200 c181 -358 229 -450 237 -453 4 -2 7 -12 7 -22 0 -10 3 -20 8 -22 4 -1 36 -60 71 -130 73 -143 81 -150 171 -146 58 3 65 5 68 25 3 18 -128 294 -148 313 -3 3 -33 59 -66 125 -34 66 -94 183 -134 260 -131 252 -140 270 -140 286 0 17 30 49 46 49 6 0 19 8 30 18 10 9 40 32 65 51 25 19 61 55 80 80 19 25 42 55 52 65 9 11 17 25 17 32 0 7 3 14 8 16 10 4 68 125 83 173 6 22 15 49 20 60 19 50 43 229 43 335 0 107 -23 294 -43 345 -5 11 -14 38 -21 60 -18 58 -91 205 -101 205 -5 0 -9 7 -9 15 0 18 -166 185 -185 185 -7 0 -15 3 -17 8 -5 12 -88 52 -108 52 -11 0 -21 4 -24 9 -12 19 -107 24 -566 27 l-475 4 -17 -22z m962 -193 c25 -4 49 -11 55 -16 5 -5 19 -9 32 -9 13 0 23 -4 23 -10 0 -5 9 -10 20 -10 11 0 20 -4 20 -8 0 -4 13 -16 29 -25 118 -70 209 -225 253 -432 15 -68 15 -297 0 -365 -6 -30 -14 -70 -18 -88 -3 -18 -10 -35 -15 -38 -5 -3 -9 -12 -9 -21 0 -19 -56 -130 -75 -150 -8 -8 -15 -17 -15 -21 0 -36 -181 -172 -228 -172 -10 0 -24 -6 -30 -12 -10 -10 -109 -13 -428 -13 -400 0 -416 1 -430 19 -12 17 -14 125 -14 682 l0 663 27 21 c26 21 32 21 392 16 201 -2 386 -7 411 -11z M60220 2840 c-31 -31 -29 -148 3 -178 23 -22 28 -22 360 -22 l337 0 0 -1255 c0 -1434 -7 -1325 83 -1325 84 0 77 -122 77 1287 1 1030 3 1261 14 1276 12 16 41 17 345 17 l332 0 24 25 c34 33 36 128 4 169 l-20 26 -770 0 c-756 0 -769 0 -789 -20z M64441 2831 c-21 -29 -21 -30 -21 -1371 0 -1523 -7 -1400 81 -1400 86 0 79 -112 79 1184 0 636 4 1156 8 1156 8 0 21 -23 41 -72 8 -22 19 -47 56 -133 8 -19 22 -51 30 -70 8 -19 21 -50 29 -67 7 -18 23 -54 35 -80 11 -26 21 -50 21 -53 0 -2 14 -34 30 -70 17 -36 30 -68 30 -70 0 -3 10 -27 21 -53 12 -26 28 -62 35 -79 8 -18 21 -49 29 -68 8 -19 22 -51 30 -70 8 -19 22 -52 31 -72 9 -21 25 -58 36 -83 11 -25 24 -54 28 -65 4 -11 18 -42 30 -70 12 -27 26 -59 30 -70 4 -11 17 -40 28 -65 19 -42 31 -70 66 -152 7 -18 23 -54 35 -80 11 -26 21 -50 21 -53 0 -3 9 -27 21 -53 23 -51 27 -60 63 -144 19 -44 32 -60 60 -73 57 -27 95 9 146 140 4 11 18 43 30 70 12 28 26 59 30 70 4 11 17 41 29 67 11 27 31 69 42 95 12 27 25 57 29 68 4 11 17 40 28 65 19 42 31 70 66 153 7 17 23 53 35 79 11 26 21 50 21 53 0 3 9 25 20 50 11 25 29 65 40 90 11 25 20 47 20 50 0 2 14 34 30 70 17 36 30 68 30 70 0 3 9 27 21 53 12 26 24 56 29 67 4 11 17 40 28 65 11 25 27 61 35 80 8 19 22 52 31 73 20 47 42 98 60 139 30 73 49 114 62 142 8 16 14 35 14 43 0 7 5 13 10 13 7 0 10 -387 10 -1140 0 -1300 -7 -1200 82 -1200 37 0 54 5 64 18 11 14 13 263 14 1383 0 1538 8 1399 -76 1399 -58 -1 -90 -38 -134 -155 -4 -11 -18 -42 -30 -70 -12 -27 -26 -59 -30 -70 -4 -11 -18 -42 -30 -70 -12 -27 -26 -59 -30 -70 -4 -11 -18 -42 -30 -70 -12 -27 -26 -59 -30 -70 -4 -11 -18 -42 -30 -70 -12 -27 -26 -59 -30 -70 -4 -11 -18 -42 -30 -70 -12 -27 -26 -59 -30 -70 -4 -11 -15 -37 -24 -57 -9 -21 -22 -53 -30 -70 -7 -18 -23 -54 -35 -80 -11 -26 -21 -50 -21 -53 0 -3 -10 -27 -21 -53 -12 -26 -28 -62 -35 -79 -8 -18 -21 -50 -30 -70 -9 -21 -20 -47 -24 -58 -4 -11 -18 -42 -30 -70 -12 -27 -26 -59 -30 -70 -4 -11 -18 -42 -30 -70 -12 -27 -26 -59 -30 -70 -4 -11 -18 -42 -30 -70 -12 -27 -26 -59 -30 -70 -4 -11 -18 -42 -30 -70 -12 -27 -26 -59 -30 -70 -17 -46 -46 -99 -56 -102 -6 -2 -19 15 -29 39 -18 47 -31 77 -64 150 -11 26 -21 50 -21 53 0 3 -10 27 -21 53 -12 26 -28 62 -35 80 -19 43 -41 94 -60 140 -9 20 -23 53 -31 72 -8 19 -24 55 -35 80 -11 25 -24 54 -28 65 -4 11 -18 43 -30 70 -12 28 -26 59 -30 70 -10 26 -33 79 -58 136 -12 25 -31 70 -42 100 -12 29 -32 77 -46 107 -13 29 -24 55 -24 57 0 3 -9 25 -20 50 -11 25 -29 65 -40 90 -11 25 -20 47 -20 50 0 3 -10 27 -21 53 -12 26 -27 61 -34 77 -14 34 -35 81 -59 138 -9 20 -23 54 -32 75 -9 20 -24 55 -34 77 -10 22 -25 57 -34 78 -37 82 -123 108 -165 48z M66918 2846 c-17 -12 -18 -90 -18 -1388 0 -1055 3 -1377 12 -1386 19 -19 1334 -17 1354 2 10 10 14 38 14 90 0 115 55 106 -622 106 -511 0 -578 2 -592 16 -24 24 -24 1004 0 1028 14 14 73 16 502 16 571 0 532 -7 532 100 0 119 43 110 -541 110 l-497 0 -6 23 c-3 12 -6 249 -6 527 0 278 3 515 6 528 l6 22 593 0 c688 0 625 -11 625 112 0 119 69 108 -691 108 -528 -1 -657 -3 -671 -14z M68606 2838 c-21 -30 -25 -2732 -3 -2761 11 -16 46 -17 462 -14 508 4 513 5 670 78 208 97 388 326 483 614 38 114 64 235 92 432 42 293 -17 806 -119 1048 -153 360 -361 550 -671 611 -19 4 -229 9 -467 11 l-431 4 -16 -23z m909 -208 c3 -5 19 -10 35 -10 16 0 32 -4 35 -10 3 -5 17 -10 31 -10 13 0 24 -4 24 -10 0 -5 7 -10 16 -10 23 0 132 -77 190 -134 75 -76 159 -208 207 -326 23 -57 28 -75 58 -185 60 -223 68 -617 18 -870 -28 -143 -73 -280 -121 -369 -28 -52 -52 -94 -71 -121 -32 -47 -157 -169 -207 -201 -54 -36 -75 -45 -180 -84 -63 -23 -766 -27 -791 -5 -19 18 -19 41 -19 1167 0 773 3 1156 10 1169 10 18 25 19 385 19 238 0 376 -4 380 -10z M70630 2842 c-21 -23 -28 -2711 -7 -2752 10 -21 21 -25 64 -28 91 -5 84 -140 81 1406 -3 1348 -3 1361 -23 1376 -27 21 -96 20 -115 -2z M73268 2838 c-26 -32 -28 -2719 -2 -2756 17 -25 100 -32 122 -10 9 9 12 331 12 1386 0 1298 -1 1376 -17 1388 -29 22 -95 17 -115 -8z M73841 2831 c-21 -29 -21 -30 -21 -1371 0 -1523 -7 -1400 81 -1400 87 0 79 -116 79 1215 0 917 3 1186 12 1183 11 -4 49 -61 65 -98 4 -8 9 -17 12 -20 5 -4 18 -27 65 -115 6 -11 13 -22 16 -25 3 -3 15 -23 27 -45 29 -55 54 -99 95 -170 20 -33 47 -81 60 -106 42 -75 53 -94 58 -99 3 -3 14 -23 26 -45 27 -52 48 -89 54 -95 4 -4 18 -29 64 -115 6 -11 13 -22 16 -25 3 -3 10 -14 16 -25 26 -48 39 -70 44 -75 6 -6 50 -86 65 -117 5 -13 13 -23 18 -23 4 0 7 -4 7 -9 0 -5 33 -67 74 -138 40 -70 84 -148 98 -173 14 -25 35 -62 47 -83 23 -41 52 -92 73 -128 7 -13 15 -26 18 -29 3 -3 11 -16 18 -29 8 -13 22 -39 33 -57 10 -19 28 -49 38 -68 11 -18 25 -44 33 -57 7 -13 15 -26 18 -29 6 -6 50 -86 65 -117 5 -13 13 -23 18 -23 4 0 7 -4 7 -9 0 -20 114 -207 138 -228 34 -29 108 -32 128 -6 11 15 13 264 14 1384 0 1311 -1 1367 -18 1382 -28 26 -94 22 -120 -6 l-22 -23 0 -1179 c0 -1279 3 -1207 -52 -1105 -14 25 -34 61 -46 81 -11 20 -26 47 -34 60 -7 13 -15 26 -18 29 -5 5 -18 27 -44 75 -6 11 -13 22 -16 25 -3 3 -14 23 -26 45 -27 52 -48 89 -54 95 -6 6 -50 86 -65 117 -5 13 -13 23 -17 23 -5 0 -8 4 -8 9 0 5 -32 65 -71 133 -120 207 -140 242 -146 261 -3 9 -9 17 -14 17 -5 0 -9 4 -9 10 0 5 -14 33 -31 62 -30 49 -46 78 -81 139 -7 13 -15 26 -18 29 -4 4 -18 29 -64 115 -6 11 -13 22 -16 25 -3 3 -11 16 -18 29 -31 55 -60 105 -113 199 -12 20 -35 62 -52 92 -17 30 -38 67 -49 82 -10 14 -18 29 -18 32 0 3 -14 29 -31 58 -18 29 -40 68 -50 86 -53 91 -80 139 -111 193 -7 13 -15 26 -18 29 -3 3 -11 16 -18 29 -8 13 -22 38 -32 56 -46 82 -63 95 -125 95 -26 0 -38 -7 -54 -29z M75960 2828 c-20 -32 -20 -55 -20 -1371 0 -1180 2 -1341 15 -1367 l16 -30 668 0 c773 0 701 -11 701 108 0 111 53 102 -626 102 -550 0 -582 1 -597 18 -27 30 -26 1001 1 1025 17 15 66 17 498 17 263 0 489 3 500 6 50 13 62 133 18 178 l-27 26 -491 0 c-369 0 -495 3 -504 12 -9 9 -12 142 -12 538 0 396 3 529 12 538 9 9 156 12 598 12 l587 0 21 23 c18 19 22 35 22 90 0 117 67 107 -700 107 l-660 0 -20 -32z"/></g></svg>
